<svg version="1.1" viewBox="0.0 0.0 896.7139107611548 337.5459317585302" fill="none" stroke="none" stroke-linecap="square" stroke-miterlimit="10" xmlns:xlink="http://www.w3.org/1999/xlink" xmlns="http://www.w3.org/2000/svg"><clipPath id="p.0"><path d="m0 0l896.7139 0l0 337.54593l-896.7139 0l0 -337.54593z" clip-rule="nonzero"/></clipPath><g clip-path="url(#p.0)"><path fill="#efefef" d="m0 0l896.7139 0l0 337.54593l-896.7139 0z" fill-rule="evenodd"/><path fill="#b6d7a8" d="m110.50033 68.90527l48.755913 0l0 48.755905l-48.755913 0z" fill-rule="evenodd"/><path stroke="#000000" stroke-width="0.7611548556430446" stroke-linejoin="round" stroke-linecap="butt" d="m110.50033 68.90527l48.755913 0l0 48.755905l-48.755913 0z" fill-rule="evenodd"/><path fill="#000000" d="m134.24634 93.72274l3.046875 4.6875l1.5625 0l-3.765625 -5.671875l3.53125 -4.421875l-1.5625 0l-2.953125 3.71875l-0.984375 1.21875l0 -4.9375l-1.3125 0l0 10.09375l1.3125 0l0 -3.40625l1.125 -1.28125z" fill-rule="nonzero"/><path fill="#b6d7a8" d="m159.26411 68.90527l48.755905 0l0 48.755905l-48.755905 0z" fill-rule="evenodd"/><path stroke="#000000" stroke-width="0.7611548556430446" stroke-linejoin="round" stroke-linecap="butt" d="m159.26411 68.90527l48.755905 0l0 48.755905l-48.755905 0z" fill-rule="evenodd"/><path fill="#000000" d="m183.55699 93.394615l-2.28125 -5.078125l-1.46875 0l3.140625 6.328125l0.015625 3.765625l1.1875 0l0.03125 -3.765625l3.140625 -6.328125l-1.453125 0l-2.3125 5.078125z" fill-rule="nonzero"/><path fill="#b6d7a8" d="m208.02002 68.90527l48.75589 0l0 48.755905l-48.75589 0z" fill-rule="evenodd"/><path stroke="#000000" stroke-width="0.7611548556430446" stroke-linejoin="round" stroke-linecap="butt" d="m208.02002 68.90527l48.75589 0l0 48.755905l-48.75589 0z" fill-rule="evenodd"/><path fill="#000000" d="m229.34415 88.31649l0 1.125l2.359375 0l0 7.859375l-2.359375 0l0 1.109375l6.09375 0l0 -1.109375l-2.40625 0l0 -7.859375l2.40625 0l0 -1.125l-6.09375 0z" fill-rule="nonzero"/><path fill="#b6d7a8" d="m256.79166 68.90527l48.75592 0l0 48.755905l-48.75592 0z" fill-rule="evenodd"/><path stroke="#000000" stroke-width="0.7611548556430446" stroke-linejoin="round" stroke-linecap="butt" d="m256.79166 68.90527l48.75592 0l0 48.755905l-48.75592 0z" fill-rule="evenodd"/><path fill="#000000" d="m280.58456 98.41024l1.125 0l3.171875 -10.09375l-1.359375 0l-2.234375 7.53125l-0.15625 0.5l-0.140625 -0.5l-2.21875 -7.53125l-1.375 0l3.1875 10.09375z" fill-rule="nonzero"/><path fill="#ffe599" d="m305.55545 68.90527l48.75589 0l0 48.755905l-48.75589 0z" fill-rule="evenodd"/><path stroke="#000000" stroke-width="0.7611548556430446" stroke-linejoin="round" stroke-linecap="butt" d="m305.55545 68.90527l48.75589 0l0 48.755905l-48.75589 0z" fill-rule="evenodd"/><path fill="#000000" d="m329.3952 91.519615q0 0.40625 0.25 0.6875q0.25 0.265625 0.75 0.265625q0.5 0 0.75 -0.265625q0.265625 -0.28125 0.265625 -0.6875q0 -0.421875 -0.265625 -0.703125q-0.25 -0.296875 -0.75 -0.296875q-0.5 0 -0.75 0.296875q-0.25 0.296875 -0.25 0.703125zm1.65625 6.59375l0 -1.21875l-1.390625 0l0 1.234375q0 0.59375 -0.140625 1.140625q-0.140625 0.546875 -0.46875 1.03125l0.796875 0.4375q0.546875 -0.5 0.875 -1.21875q0.328125 -0.71875 0.328125 -1.40625z" fill-rule="nonzero"/><path fill="#d5a6bd" d="m354.31528 68.90527l48.75592 0l0 48.755905l-48.75592 0z" fill-rule="evenodd"/><path stroke="#000000" stroke-width="0.7611548556430446" stroke-linejoin="round" stroke-linecap="butt" d="m354.31528 68.90527l48.75592 0l0 48.755905l-48.75592 0z" fill-rule="evenodd"/><path fill="#000000" d="m381.84256 90.957115q0 -0.65625 -0.234375 -1.171875q-0.21875 -0.515625 -0.625 -0.875q-0.390625 -0.34375 -0.9375 -0.53125q-0.546875 -0.1875 -1.1875 -0.1875q-0.640625 0 -1.1875 0.1875q-0.546875 0.1875 -0.9375 0.53125q-0.390625 0.359375 -0.609375 0.875q-0.21875 0.515625 -0.21875 1.171875q0 0.375 0.09375 0.71875q0.109375 0.328125 0.296875 0.625q0.1875 0.28125 0.453125 0.515625q0.265625 0.234375 0.609375 0.390625q-0.390625 0.171875 -0.703125 0.421875q-0.3125 0.25 -0.53125 0.5625q-0.21875 0.3125 -0.34375 0.703125q-0.125 0.375 -0.125 0.796875q0 0.6875 0.25 1.21875q0.25 0.53125 0.6875 0.890625q0.4375 0.375 1.015625 0.5625q0.59375 0.1875 1.265625 0.1875q0.671875 0 1.25 -0.1875q0.578125 -0.203125 1.015625 -0.5625q0.4375 -0.359375 0.6875 -0.890625q0.25 -0.53125 0.25 -1.21875q0 -0.421875 -0.125 -0.796875q-0.109375 -0.375 -0.34375 -0.703125q-0.21875 -0.3125 -0.546875 -0.546875q-0.3125 -0.25 -0.6875 -0.421875q0.21875 -0.109375 0.40625 -0.25q0.203125 -0.140625 0.359375 -0.296875q0.328125 -0.328125 0.515625 -0.765625q0.1875 -0.453125 0.1875 -0.953125zm-1.046875 4.703125q0 0.4375 -0.140625 0.78125q-0.140625 0.34375 -0.390625 0.578125q-0.265625 0.234375 -0.625 0.359375q-0.34375 0.125 -0.765625 0.125q-0.4375 0 -0.796875 -0.125q-0.359375 -0.125 -0.609375 -0.359375q-0.25 -0.234375 -0.390625 -0.578125q-0.125 -0.34375 -0.125 -0.78125q0 -0.421875 0.125 -0.765625q0.140625 -0.359375 0.390625 -0.625q0.25 -0.25 0.59375 -0.375q0.359375 -0.140625 0.796875 -0.140625q0.421875 0 0.78125 0.140625q0.359375 0.125 0.609375 0.375q0.265625 0.265625 0.40625 0.625q0.140625 0.34375 0.140625 0.765625zm-0.234375 -4.6875q0 0.390625 -0.125 0.71875q-0.125 0.3125 -0.34375 0.53125q-0.234375 0.234375 -0.546875 0.359375q-0.3125 0.109375 -0.671875 0.109375q-0.375 0 -0.6875 -0.109375q-0.3125 -0.125 -0.53125 -0.359375q-0.21875 -0.21875 -0.34375 -0.53125q-0.125 -0.3125 -0.125 -0.71875q0 -0.390625 0.125 -0.703125q0.125 -0.328125 0.34375 -0.5625q0.21875 -0.21875 0.515625 -0.34375q0.3125 -0.125 0.6875 -0.125q0.375 0 0.6875 0.125q0.3125 0.125 0.53125 0.359375q0.234375 0.234375 0.359375 0.5625q0.125 0.3125 0.125 0.6875z" fill-rule="nonzero"/><path fill="#d5a6bd" d="m403.08694 68.90527l48.75592 0l0 48.755905l-48.75592 0z" fill-rule="evenodd"/><path stroke="#000000" stroke-width="0.7611548556430446" stroke-linejoin="round" stroke-linecap="butt" d="m403.08694 68.90527l48.75592 0l0 48.755905l-48.75592 0z" fill-rule="evenodd"/><path fill="#000000" d="m426.64545 97.582115q0 0.40625 0.25 0.6875q0.25 0.265625 0.75 0.265625q0.5 0 0.75 -0.265625q0.265625 -0.28125 0.265625 -0.6875q0 -0.421875 -0.265625 -0.703125q-0.25 -0.296875 -0.75 -0.296875q-0.5 0 -0.75 0.296875q-0.25 0.296875 -0.25 0.703125z" fill-rule="nonzero"/><path fill="#d5a6bd" d="m451.8468 68.90527l48.75589 0l0 48.755905l-48.75589 0z" fill-rule="evenodd"/><path stroke="#000000" stroke-width="0.7611548556430446" stroke-linejoin="round" stroke-linecap="butt" d="m451.8468 68.90527l48.75589 0l0 48.755905l-48.75589 0z" fill-rule="evenodd"/><path fill="#000000" d="m477.32718 98.41024l0 -10.09375l-0.09375 0l-3.828125 1.46875l0 1.171875l2.640625 -1.0l0 8.453125l1.28125 0z" fill-rule="nonzero"/><path fill="#c9daf8" d="m500.60992 68.90527l48.75592 0l0 48.755905l-48.75592 0z" fill-rule="evenodd"/><path stroke="#000000" stroke-width="0.7611548556430446" stroke-linejoin="round" stroke-linecap="butt" d="m500.60992 68.90527l48.75592 0l0 48.755905l-48.75592 0z" fill-rule="evenodd"/><path fill="#000000" d="m518.06775 88.31649l4.21875 10.953125l1.15625 0l-4.21875 -10.953125l-1.15625 0zm8.12323 10.09375l1.28125 0l0 -5.375q0.140625 -0.25 0.3125 -0.4375q0.171875 -0.203125 0.390625 -0.359375q0.25 -0.171875 0.546875 -0.265625q0.3125 -0.109375 0.671875 -0.109375q0.40625 0 0.71875 0.09375q0.3125 0.09375 0.53125 0.3125q0.21875 0.21875 0.328125 0.5625q0.109375 0.34375 0.109375 0.84375l0 4.734375l1.28125 0l0 -4.765625q0 -0.734375 -0.1875 -1.28125q-0.171875 -0.546875 -0.515625 -0.90625q-0.34375 -0.34375 -0.828125 -0.515625q-0.46875 -0.171875 -1.0625 -0.171875q-0.4375 0.015625 -0.828125 0.140625q-0.390625 0.109375 -0.71875 0.34375q-0.234375 0.140625 -0.4375 0.34375q-0.1875 0.1875 -0.34375 0.421875l-0.09375 -1.109375l-1.15625 0l0 7.5z" fill-rule="nonzero"/><path fill="#b6d7a8" d="m549.3783 68.90527l48.75592 0l0 48.755905l-48.75592 0z" fill-rule="evenodd"/><path stroke="#000000" stroke-width="0.7611548556430446" stroke-linejoin="round" stroke-linecap="butt" d="m549.3783 68.90527l48.75592 0l0 48.755905l-48.75592 0z" fill-rule="evenodd"/><path fill="#000000" d="m572.1555 97.31649l0 -9.0l-1.28125 0l0 10.09375l6.203125 0l0 -1.09375l-4.921875 0z" fill-rule="nonzero"/><path fill="#b6d7a8" d="m598.1381 68.90527l48.75592 0l0 48.755905l-48.75592 0z" fill-rule="evenodd"/><path stroke="#000000" stroke-width="0.7611548556430446" stroke-linejoin="round" stroke-linecap="butt" d="m598.1381 68.90527l48.75592 0l0 48.755905l-48.75592 0z" fill-rule="evenodd"/><path fill="#000000" d="m621.931 98.41024l1.125 0l3.171875 -10.09375l-1.359375 0l-2.234375 7.53125l-0.15625 0.5l-0.140625 -0.5l-2.21875 -7.53125l-1.375 0l3.1875 10.09375z" fill-rule="nonzero"/><path fill="#b6d7a8" d="m646.89734 68.90527l48.75586 0l0 48.755905l-48.75586 0z" fill-rule="evenodd"/><path stroke="#000000" stroke-width="0.7611548556430446" stroke-linejoin="round" stroke-linecap="butt" d="m646.89734 68.90527l48.75586 0l0 48.755905l-48.75586 0z" fill-rule="evenodd"/><path fill="#000000" d="m668.22144 88.31649l0 1.125l2.359375 0l0 7.859375l-2.359375 0l0 1.109375l6.09375 0l0 -1.109375l-2.40625 0l0 -7.859375l2.40625 0l0 -1.125l-6.09375 0z" fill-rule="nonzero"/><path fill="#b6d7a8" d="m695.6657 68.90527l48.75586 0l0 48.755905l-48.75586 0z" fill-rule="evenodd"/><path stroke="#000000" stroke-width="0.7611548556430446" stroke-linejoin="round" stroke-linecap="butt" d="m695.6657 68.90527l48.75586 0l0 48.755905l-48.75586 0z" fill-rule="evenodd"/><path fill="#000000" d="m719.45856 98.41024l1.125 0l3.171875 -10.09375l-1.359375 0l-2.234375 7.53125l-0.15625 0.5l-0.140625 -0.5l-2.21875 -7.53125l-1.375 0l3.1875 10.09375z" fill-rule="nonzero"/><path fill="#ffe599" d="m744.42944 68.90527l48.75592 0l0 48.755905l-48.75592 0z" fill-rule="evenodd"/><path stroke="#000000" stroke-width="0.7611548556430446" stroke-linejoin="round" stroke-linecap="butt" d="m744.42944 68.90527l48.75592 0l0 48.755905l-48.75592 0z" fill-rule="evenodd"/><path fill="#000000" d="m768.2692 91.519615q0 0.40625 0.25 0.6875q0.25 0.265625 0.75 0.265625q0.5 0 0.75 -0.265625q0.265625 -0.28125 0.265625 -0.6875q0 -0.421875 -0.265625 -0.703125q-0.25 -0.296875 -0.75 -0.296875q-0.5 0 -0.75 0.296875q-0.25 0.296875 -0.25 0.703125zm1.65625 6.59375l0 -1.21875l-1.390625 0l0 1.234375q0 0.59375 -0.140625 1.140625q-0.140625 0.546875 -0.46875 1.03125l0.796875 0.4375q0.546875 -0.5 0.875 -1.21875q0.328125 -0.71875 0.328125 -1.40625z" fill-rule="nonzero"/><path fill="#d5a6bd" d="m793.19324 68.90527l48.75592 0l0 48.755905l-48.75592 0z" fill-rule="evenodd"/><path stroke="#000000" stroke-width="0.7611548556430446" stroke-linejoin="round" stroke-linecap="butt" d="m793.19324 68.90527l48.75592 0l0 48.755905l-48.75592 0z" fill-rule="evenodd"/><path fill="#000000" d="m814.9705 93.34774l1.03125 0.265625q0.171875 -0.15625 0.328125 -0.265625q0.171875 -0.125 0.359375 -0.203125q0.1875 -0.078125 0.421875 -0.125q0.234375 -0.046875 0.546875 -0.046875q0.484375 0 0.859375 0.171875q0.375 0.171875 0.625 0.46875q0.265625 0.3125 0.390625 0.71875q0.140625 0.40625 0.140625 0.875q0 0.515625 -0.125 0.953125q-0.125 0.421875 -0.359375 0.71875q-0.234375 0.296875 -0.59375 0.46875q-0.34375 0.15625 -0.8125 0.15625q-0.796875 0 -1.328125 -0.4375q-0.515625 -0.453125 -0.625 -1.3125l-1.21875 0q0.0625 0.703125 0.328125 1.234375q0.28125 0.515625 0.71875 0.875q0.421875 0.34375 0.96875 0.515625q0.546875 0.171875 1.15625 0.171875q0.8125 0 1.40625 -0.25q0.59375 -0.25 0.984375 -0.703125q0.390625 -0.453125 0.578125 -1.0625q0.203125 -0.625 0.203125 -1.34375q0 -0.75 -0.21875 -1.375q-0.203125 -0.625 -0.578125 -1.078125q-0.390625 -0.4375 -0.953125 -0.671875q-0.546875 -0.25 -1.25 -0.25q-0.546875 0 -0.96875 0.140625q-0.40625 0.125 -0.703125 0.296875l0.28125 -2.6875l4.09375 0l0 -1.25l-5.171875 0l-0.515625 5.03125z" fill-rule="nonzero"/><path fill="#d5a6bd" d="m841.95703 68.90527l48.75592 0l0 48.755905l-48.75592 0z" fill-rule="evenodd"/><path stroke="#000000" stroke-width="0.7611548556430446" stroke-linejoin="round" stroke-linecap="butt" d="m841.95703 68.90527l48.75592 0l0 48.755905l-48.75592 0z" fill-rule="evenodd"/><path fill="#000000" d="m865.5155 97.582115q0 0.40625 0.25 0.6875q0.25 0.265625 0.75 0.265625q0.5 0 0.75 -0.265625q0.265625 -0.28125 0.265625 -0.6875q0 -0.421875 -0.265625 -0.703125q-0.25 -0.296875 -0.75 -0.296875q-0.5 0 -0.75 0.296875q-0.25 0.296875 -0.25 0.703125z" fill-rule="nonzero"/><path fill="#c9daf8" d="m110.50033 163.63493l48.755913 0l0 48.755905l-48.755913 0z" fill-rule="evenodd"/><path stroke="#000000" stroke-width="0.7611548556430446" stroke-linejoin="round" stroke-linecap="butt" d="m110.50033 163.63493l48.755913 0l0 48.755905l-48.755913 0z" fill-rule="evenodd"/><path fill="#000000" d="m127.958145 183.04614l4.21875 10.953125l1.15625 0l-4.21875 -10.953125l-1.15625 0zm8.1232605 10.09375l1.28125 0l0 -5.375q0.140625 -0.25 0.3125 -0.4375q0.171875 -0.203125 0.390625 -0.359375q0.25 -0.171875 0.546875 -0.265625q0.3125 -0.109375 0.671875 -0.109375q0.40625 0 0.71875 0.09375q0.3125 0.09375 0.53125 0.3125q0.21875 0.21875 0.328125 0.5625q0.109375 0.34375 0.109375 0.84375l0 4.734375l1.28125 0l0 -4.765625q0 -0.734375 -0.1875 -1.28125q-0.171875 -0.546875 -0.515625 -0.90625q-0.34375 -0.34375 -0.828125 -0.515625q-0.46875 -0.171875 -1.0625 -0.171875q-0.4375 0.015625 -0.828125 0.140625q-0.390625 0.109375 -0.71875 0.34375q-0.234375 0.140625 -0.4375 0.34375q-0.1875 0.1875 -0.34375 0.421875l-0.09375 -1.109375l-1.15625 0l0 7.5z" fill-rule="nonzero"/><path fill="#c9daf8" d="m159.25624 163.63493l48.755905 0l0 48.755905l-48.755905 0z" fill-rule="evenodd"/><path stroke="#000000" stroke-width="0.7611548556430446" stroke-linejoin="round" stroke-linecap="butt" d="m159.25624 163.63493l48.755905 0l0 48.755905l-48.755905 0z" fill-rule="evenodd"/><path fill="#000000" d="m176.71405 183.04614l4.21875 10.953125l1.15625 0l-4.21875 -10.953125l-1.15625 0zm8.1232605 10.09375l1.28125 0l0 -5.375q0.140625 -0.25 0.3125 -0.4375q0.171875 -0.203125 0.390625 -0.359375q0.25 -0.171875 0.546875 -0.265625q0.3125 -0.109375 0.671875 -0.109375q0.40625 0 0.71875 0.09375q0.3125 0.09375 0.53125 0.3125q0.21875 0.21875 0.328125 0.5625q0.109375 0.34375 0.109375 0.84375l0 4.734375l1.28125 0l0 -4.765625q0 -0.734375 -0.1875 -1.28125q-0.171875 -0.546875 -0.515625 -0.90625q-0.34375 -0.34375 -0.828125 -0.515625q-0.46875 -0.171875 -1.0625 -0.171875q-0.4375 0.015625 -0.828125 0.140625q-0.390625 0.109375 -0.71875 0.34375q-0.234375 0.140625 -0.4375 0.34375q-0.1875 0.1875 -0.34375 0.421875l-0.09375 -1.109375l-1.15625 0l0 7.5z" fill-rule="nonzero"/><path fill="#c9daf8" d="m208.01215 163.63493l48.75589 0l0 48.755905l-48.75589 0z" fill-rule="evenodd"/><path stroke="#000000" stroke-width="0.7611548556430446" stroke-linejoin="round" stroke-linecap="butt" d="m208.01215 163.63493l48.75589 0l0 48.755905l-48.75589 0z" fill-rule="evenodd"/><path fill="#000000" d="m225.46996 183.04614l4.21875 10.953125l1.15625 0l-4.21875 -10.953125l-1.15625 0zm8.1232605 10.09375l1.28125 0l0 -5.375q0.140625 -0.25 0.3125 -0.4375q0.171875 -0.203125 0.390625 -0.359375q0.25 -0.171875 0.546875 -0.265625q0.3125 -0.109375 0.671875 -0.109375q0.40625 0 0.71875 0.09375q0.3125 0.09375 0.53125 0.3125q0.21875 0.21875 0.328125 0.5625q0.109375 0.34375 0.109375 0.84375l0 4.734375l1.28125 0l0 -4.765625q0 -0.734375 -0.1875 -1.28125q-0.171875 -0.546875 -0.515625 -0.90625q-0.34375 -0.34375 -0.828125 -0.515625q-0.46875 -0.171875 -1.0625 -0.171875q-0.4375 0.015625 -0.828125 0.140625q-0.390625 0.109375 -0.71875 0.34375q-0.234375 0.140625 -0.4375 0.34375q-0.1875 0.1875 -0.34375 0.421875l-0.09375 -1.109375l-1.15625 0l0 7.5z" fill-rule="nonzero"/><path fill="#c9daf8" d="m256.78378 163.63493l48.75592 0l0 48.755905l-48.75592 0z" fill-rule="evenodd"/><path stroke="#000000" stroke-width="0.7611548556430446" stroke-linejoin="round" stroke-linecap="butt" d="m256.78378 163.63493l48.75592 0l0 48.755905l-48.75592 0z" fill-rule="evenodd"/><path fill="#000000" d="m274.2416 183.04614l4.21875 10.953125l1.15625 0l-4.21875 -10.953125l-1.15625 0zm8.1232605 10.09375l1.28125 0l0 -5.375q0.140625 -0.25 0.3125 -0.4375q0.171875 -0.203125 0.390625 -0.359375q0.25 -0.171875 0.546875 -0.265625q0.3125 -0.109375 0.671875 -0.109375q0.40625 0 0.71875 0.09375q0.3125 0.09375 0.53125 0.3125q0.21875 0.21875 0.328125 0.5625q0.109375 0.34375 0.109375 0.84375l0 4.734375l1.28125 0l0 -4.765625q0 -0.734375 -0.1875 -1.28125q-0.171875 -0.546875 -0.515625 -0.90625q-0.34375 -0.34375 -0.828125 -0.515625q-0.46875 -0.171875 -1.0625 -0.171875q-0.4375 0.015625 -0.828125 0.140625q-0.390625 0.109375 -0.71875 0.34375q-0.234375 0.140625 -0.4375 0.34375q-0.1875 0.1875 -0.34375 0.421875l-0.09375 -1.109375l-1.15625 0l0 7.5z" fill-rule="nonzero"/><path fill="#c9daf8" d="m305.54758 163.63493l48.75589 0l0 48.755905l-48.75589 0z" fill-rule="evenodd"/><path stroke="#000000" stroke-width="0.7611548556430446" stroke-linejoin="round" stroke-linecap="butt" d="m305.54758 163.63493l48.75589 0l0 48.755905l-48.75589 0z" fill-rule="evenodd"/><path fill="#000000" d="m323.0054 183.04614l4.21875 10.953125l1.15625 0l-4.21875 -10.953125l-1.15625 0zm8.1232605 10.09375l1.28125 0l0 -5.375q0.140625 -0.25 0.3125 -0.4375q0.171875 -0.203125 0.390625 -0.359375q0.25 -0.171875 0.546875 -0.265625q0.3125 -0.109375 0.671875 -0.109375q0.40625 0 0.71875 0.09375q0.3125 0.09375 0.53125 0.3125q0.21875 0.21875 0.328125 0.5625q0.109375 0.34375 0.109375 0.84375l0 4.734375l1.28125 0l0 -4.765625q0 -0.734375 -0.1875 -1.28125q-0.171875 -0.546875 -0.515625 -0.90625q-0.34375 -0.34375 -0.828125 -0.515625q-0.46875 -0.171875 -1.0625 -0.171875q-0.4375 0.015625 -0.828125 0.140625q-0.390625 0.109375 -0.71875 0.34375q-0.234375 0.140625 -0.4375 0.34375q-0.1875 0.1875 -0.34375 0.421875l-0.09375 -1.109375l-1.15625 0l0 7.5z" fill-rule="nonzero"/><path fill="#c9daf8" d="m354.31528 163.63493l48.75592 0l0 48.755905l-48.75592 0z" fill-rule="evenodd"/><path stroke="#000000" stroke-width="0.7611548556430446" stroke-linejoin="round" stroke-linecap="butt" d="m354.31528 163.63493l48.75592 0l0 48.755905l-48.75592 0z" fill-rule="evenodd"/><path fill="#000000" d="m371.7731 183.04614l4.21875 10.953125l1.15625 0l-4.21875 -10.953125l-1.15625 0zm8.1232605 10.09375l1.28125 0l0 -5.375q0.140625 -0.25 0.3125 -0.4375q0.171875 -0.203125 0.390625 -0.359375q0.25 -0.171875 0.546875 -0.265625q0.3125 -0.109375 0.671875 -0.109375q0.40625 0 0.71875 0.09375q0.3125 0.09375 0.53125 0.3125q0.21875 0.21875 0.328125 0.5625q0.109375 0.34375 0.109375 0.84375l0 4.734375l1.28125 0l0 -4.765625q0 -0.734375 -0.1875 -1.28125q-0.171875 -0.546875 -0.515625 -0.90625q-0.34375 -0.34375 -0.828125 -0.515625q-0.46875 -0.171875 -1.0625 -0.171875q-0.4375 0.015625 -0.828125 0.140625q-0.390625 0.109375 -0.71875 0.34375q-0.234375 0.140625 -0.4375 0.34375q-0.1875 0.1875 -0.34375 0.421875l-0.09375 -1.109375l-1.15625 0l0 7.5z" fill-rule="nonzero"/><path fill="#c9daf8" d="m403.08694 163.63493l48.75592 0l0 48.755905l-48.75592 0z" fill-rule="evenodd"/><path stroke="#000000" stroke-width="0.7611548556430446" stroke-linejoin="round" stroke-linecap="butt" d="m403.08694 163.63493l48.75592 0l0 48.755905l-48.75592 0z" fill-rule="evenodd"/><path fill="#000000" d="m420.54477 183.04614l4.21875 10.953125l1.15625 0l-4.21875 -10.953125l-1.15625 0zm8.1232605 10.09375l1.28125 0l0 -5.375q0.140625 -0.25 0.3125 -0.4375q0.171875 -0.203125 0.390625 -0.359375q0.25 -0.171875 0.546875 -0.265625q0.3125 -0.109375 0.671875 -0.109375q0.40625 0 0.71875 0.09375q0.3125 0.09375 0.53125 0.3125q0.21875 0.21875 0.328125 0.5625q0.109375 0.34375 0.109375 0.84375l0 4.734375l1.28125 0l0 -4.765625q0 -0.734375 -0.1875 -1.28125q-0.171875 -0.546875 -0.515625 -0.90625q-0.34375 -0.34375 -0.828125 -0.515625q-0.46875 -0.171875 -1.0625 -0.171875q-0.4375 0.015625 -0.828125 0.140625q-0.390625 0.109375 -0.71875 0.34375q-0.234375 0.140625 -0.4375 0.34375q-0.1875 0.1875 -0.34375 0.421875l-0.09375 -1.109375l-1.15625 0l0 7.5z" fill-rule="nonzero"/><path fill="#c9daf8" d="m451.8468 163.63493l48.75589 0l0 48.755905l-48.75589 0z" fill-rule="evenodd"/><path stroke="#000000" stroke-width="0.7611548556430446" stroke-linejoin="round" stroke-linecap="butt" d="m451.8468 163.63493l48.75589 0l0 48.755905l-48.75589 0z" fill-rule="evenodd"/><path fill="#000000" d="m469.3046 183.04614l4.21875 10.953125l1.15625 0l-4.21875 -10.953125l-1.15625 0zm8.1232605 10.09375l1.28125 0l0 -5.375q0.140625 -0.25 0.3125 -0.4375q0.171875 -0.203125 0.390625 -0.359375q0.25 -0.171875 0.546875 -0.265625q0.3125 -0.109375 0.671875 -0.109375q0.40625 0 0.71875 0.09375q0.3125 0.09375 0.53125 0.3125q0.21875 0.21875 0.328125 0.5625q0.109375 0.34375 0.109375 0.84375l0 4.734375l1.28125 0l0 -4.765625q0 -0.734375 -0.1875 -1.28125q-0.171875 -0.546875 -0.515625 -0.90625q-0.34375 -0.34375 -0.828125 -0.515625q-0.46875 -0.171875 -1.0625 -0.171875q-0.4375 0.015625 -0.828125 0.140625q-0.390625 0.109375 -0.71875 0.34375q-0.234375 0.140625 -0.4375 0.34375q-0.1875 0.1875 -0.34375 0.421875l-0.09375 -1.109375l-1.15625 0l0 7.5z" fill-rule="nonzero"/><path fill="#c9daf8" d="m500.60992 163.63493l48.75592 0l0 48.755905l-48.75592 0z" fill-rule="evenodd"/><path stroke="#000000" stroke-width="0.7611548556430446" stroke-linejoin="round" stroke-linecap="butt" d="m500.60992 163.63493l48.75592 0l0 48.755905l-48.75592 0z" fill-rule="evenodd"/><path fill="#000000" d="m518.06775 183.04614l4.21875 10.953125l1.15625 0l-4.21875 -10.953125l-1.15625 0zm8.12323 10.09375l1.28125 0l0 -5.375q0.140625 -0.25 0.3125 -0.4375q0.171875 -0.203125 0.390625 -0.359375q0.25 -0.171875 0.546875 -0.265625q0.3125 -0.109375 0.671875 -0.109375q0.40625 0 0.71875 0.09375q0.3125 0.09375 0.53125 0.3125q0.21875 0.21875 0.328125 0.5625q0.109375 0.34375 0.109375 0.84375l0 4.734375l1.28125 0l0 -4.765625q0 -0.734375 -0.1875 -1.28125q-0.171875 -0.546875 -0.515625 -0.90625q-0.34375 -0.34375 -0.828125 -0.515625q-0.46875 -0.171875 -1.0625 -0.171875q-0.4375 0.015625 -0.828125 0.140625q-0.390625 0.109375 -0.71875 0.34375q-0.234375 0.140625 -0.4375 0.34375q-0.1875 0.1875 -0.34375 0.421875l-0.09375 -1.109375l-1.15625 0l0 7.5z" fill-rule="nonzero"/><path fill="#c9daf8" d="m549.3783 163.63493l48.75592 0l0 48.755905l-48.75592 0z" fill-rule="evenodd"/><path stroke="#000000" stroke-width="0.7611548556430446" stroke-linejoin="round" stroke-linecap="butt" d="m549.3783 163.63493l48.75592 0l0 48.755905l-48.75592 0z" fill-rule="evenodd"/><path fill="#000000" d="m566.8361 183.04614l4.21875 10.953125l1.15625 0l-4.21875 -10.953125l-1.15625 0zm8.12323 10.09375l1.28125 0l0 -5.375q0.140625 -0.25 0.3125 -0.4375q0.171875 -0.203125 0.390625 -0.359375q0.25 -0.171875 0.546875 -0.265625q0.3125 -0.109375 0.671875 -0.109375q0.40625 0 0.71875 0.09375q0.3125 0.09375 0.53125 0.3125q0.21875 0.21875 0.328125 0.5625q0.109375 0.34375 0.109375 0.84375l0 4.734375l1.28125 0l0 -4.765625q0 -0.734375 -0.1875 -1.28125q-0.171875 -0.546875 -0.515625 -0.90625q-0.34375 -0.34375 -0.828125 -0.515625q-0.46875 -0.171875 -1.0625 -0.171875q-0.4375 0.015625 -0.828125 0.140625q-0.390625 0.109375 -0.71875 0.34375q-0.234375 0.140625 -0.4375 0.34375q-0.1875 0.1875 -0.34375 0.421875l-0.09375 -1.109375l-1.15625 0l0 7.5z" fill-rule="nonzero"/><path fill="#c9daf8" d="m598.1381 163.63493l48.75592 0l0 48.755905l-48.75592 0z" fill-rule="evenodd"/><path stroke="#000000" stroke-width="0.7611548556430446" stroke-linejoin="round" stroke-linecap="butt" d="m598.1381 163.63493l48.75592 0l0 48.755905l-48.75592 0z" fill-rule="evenodd"/><path fill="#000000" d="m615.59595 183.04614l4.21875 10.953125l1.15625 0l-4.21875 -10.953125l-1.15625 0zm8.12323 10.09375l1.28125 0l0 -5.375q0.140625 -0.25 0.3125 -0.4375q0.171875 -0.203125 0.390625 -0.359375q0.25 -0.171875 0.546875 -0.265625q0.3125 -0.109375 0.671875 -0.109375q0.40625 0 0.71875 0.09375q0.3125 0.09375 0.53125 0.3125q0.21875 0.21875 0.328125 0.5625q0.109375 0.34375 0.109375 0.84375l0 4.734375l1.28125 0l0 -4.765625q0 -0.734375 -0.1875 -1.28125q-0.171875 -0.546875 -0.515625 -0.90625q-0.34375 -0.34375 -0.828125 -0.515625q-0.46875 -0.171875 -1.0625 -0.171875q-0.4375 0.015625 -0.828125 0.140625q-0.390625 0.109375 -0.71875 0.34375q-0.234375 0.140625 -0.4375 0.34375q-0.1875 0.1875 -0.34375 0.421875l-0.09375 -1.109375l-1.15625 0l0 7.5z" fill-rule="nonzero"/><path fill="#c9daf8" d="m646.89734 163.63493l48.75586 0l0 48.755905l-48.75586 0z" fill-rule="evenodd"/><path stroke="#000000" stroke-width="0.7611548556430446" stroke-linejoin="round" stroke-linecap="butt" d="m646.89734 163.63493l48.75586 0l0 48.755905l-48.75586 0z" fill-rule="evenodd"/><path fill="#000000" d="m664.3551 183.04614l4.21875 10.953125l1.15625 0l-4.21875 -10.953125l-1.15625 0zm8.123291 10.09375l1.28125 0l0 -5.375q0.140625 -0.25 0.3125 -0.4375q0.171875 -0.203125 0.390625 -0.359375q0.25 -0.171875 0.546875 -0.265625q0.3125 -0.109375 0.671875 -0.109375q0.40625 0 0.71875 0.09375q0.3125 0.09375 0.53125 0.3125q0.21875 0.21875 0.328125 0.5625q0.109375 0.34375 0.109375 0.84375l0 4.734375l1.28125 0l0 -4.765625q0 -0.734375 -0.1875 -1.28125q-0.171875 -0.546875 -0.515625 -0.90625q-0.34375 -0.34375 -0.828125 -0.515625q-0.46875 -0.171875 -1.0625 -0.171875q-0.4375 0.015625 -0.828125 0.140625q-0.390625 0.109375 -0.71875 0.34375q-0.234375 0.140625 -0.4375 0.34375q-0.1875 0.1875 -0.34375 0.421875l-0.09375 -1.109375l-1.15625 0l0 7.5z" fill-rule="nonzero"/><path fill="#c9daf8" d="m695.6657 163.63493l48.75586 0l0 48.755905l-48.75586 0z" fill-rule="evenodd"/><path stroke="#000000" stroke-width="0.7611548556430446" stroke-linejoin="round" stroke-linecap="butt" d="m695.6657 163.63493l48.75586 0l0 48.755905l-48.75586 0z" fill-rule="evenodd"/><path fill="#000000" d="m713.1235 183.04614l4.21875 10.953125l1.15625 0l-4.21875 -10.953125l-1.15625 0zm8.123291 10.09375l1.28125 0l0 -5.375q0.140625 -0.25 0.3125 -0.4375q0.171875 -0.203125 0.390625 -0.359375q0.25 -0.171875 0.546875 -0.265625q0.3125 -0.109375 0.671875 -0.109375q0.40625 0 0.71875 0.09375q0.3125 0.09375 0.53125 0.3125q0.21875 0.21875 0.328125 0.5625q0.109375 0.34375 0.109375 0.84375l0 4.734375l1.28125 0l0 -4.765625q0 -0.734375 -0.1875 -1.28125q-0.171875 -0.546875 -0.515625 -0.90625q-0.34375 -0.34375 -0.828125 -0.515625q-0.46875 -0.171875 -1.0625 -0.171875q-0.4375 0.015625 -0.828125 0.140625q-0.390625 0.109375 -0.71875 0.34375q-0.234375 0.140625 -0.4375 0.34375q-0.1875 0.1875 -0.34375 0.421875l-0.09375 -1.109375l-1.15625 0l0 7.5z" fill-rule="nonzero"/><path fill="#c9daf8" d="m744.42944 163.63493l48.75592 0l0 48.755905l-48.75592 0z" fill-rule="evenodd"/><path stroke="#000000" stroke-width="0.7611548556430446" stroke-linejoin="round" stroke-linecap="butt" d="m744.42944 163.63493l48.75592 0l0 48.755905l-48.75592 0z" fill-rule="evenodd"/><path fill="#000000" d="m761.88727 183.04614l4.21875 10.953125l1.15625 0l-4.21875 -10.953125l-1.15625 0zm8.123291 10.09375l1.28125 0l0 -5.375q0.140625 -0.25 0.3125 -0.4375q0.171875 -0.203125 0.390625 -0.359375q0.25 -0.171875 0.546875 -0.265625q0.3125 -0.109375 0.671875 -0.109375q0.40625 0 0.71875 0.09375q0.3125 0.09375 0.53125 0.3125q0.21875 0.21875 0.328125 0.5625q0.109375 0.34375 0.109375 0.84375l0 4.734375l1.28125 0l0 -4.765625q0 -0.734375 -0.1875 -1.28125q-0.171875 -0.546875 -0.515625 -0.90625q-0.34375 -0.34375 -0.828125 -0.515625q-0.46875 -0.171875 -1.0625 -0.171875q-0.4375 0.015625 -0.828125 0.140625q-0.390625 0.109375 -0.71875 0.34375q-0.234375 0.140625 -0.4375 0.34375q-0.1875 0.1875 -0.34375 0.421875l-0.09375 -1.109375l-1.15625 0l0 7.5z" fill-rule="nonzero"/><path fill="#c9daf8" d="m793.19324 163.63493l48.75592 0l0 48.755905l-48.75592 0z" fill-rule="evenodd"/><path stroke="#000000" stroke-width="0.7611548556430446" stroke-linejoin="round" stroke-linecap="butt" d="m793.19324 163.63493l48.75592 0l0 48.755905l-48.75592 0z" fill-rule="evenodd"/><path fill="#000000" d="m810.65106 183.04614l4.21875 10.953125l1.15625 0l-4.21875 -10.953125l-1.15625 0zm8.12323 10.09375l1.28125 0l0 -5.375q0.140625 -0.25 0.3125 -0.4375q0.171875 -0.203125 0.390625 -0.359375q0.25 -0.171875 0.546875 -0.265625q0.3125 -0.109375 0.671875 -0.109375q0.40625 0 0.71875 0.09375q0.3125 0.09375 0.53125 0.3125q0.21875 0.21875 0.328125 0.5625q0.109375 0.34375 0.109375 0.84375l0 4.734375l1.28125 0l0 -4.765625q0 -0.734375 -0.1875 -1.28125q-0.171875 -0.546875 -0.515625 -0.90625q-0.34375 -0.34375 -0.828125 -0.515625q-0.46875 -0.171875 -1.0625 -0.171875q-0.4375 0.015625 -0.828125 0.140625q-0.390625 0.109375 -0.71875 0.34375q-0.234375 0.140625 -0.4375 0.34375q-0.1875 0.1875 -0.34375 0.421875l-0.09375 -1.109375l-1.15625 0l0 7.5z" fill-rule="nonzero"/><path fill="#c9daf8" d="m841.95703 163.63493l48.75592 0l0 48.755905l-48.75592 0z" fill-rule="evenodd"/><path stroke="#000000" stroke-width="0.7611548556430446" stroke-linejoin="round" stroke-linecap="butt" d="m841.95703 163.63493l48.75592 0l0 48.755905l-48.75592 0z" fill-rule="evenodd"/><path fill="#000000" d="m859.41486 183.04614l4.21875 10.953125l1.15625 0l-4.21875 -10.953125l-1.15625 0zm8.12323 10.09375l1.28125 0l0 -5.375q0.140625 -0.25 0.3125 -0.4375q0.171875 -0.203125 0.390625 -0.359375q0.25 -0.171875 0.546875 -0.265625q0.3125 -0.109375 0.671875 -0.109375q0.40625 0 0.71875 0.09375q0.3125 0.09375 0.53125 0.3125q0.21875 0.21875 0.328125 0.5625q0.109375 0.34375 0.109375 0.84375l0 4.734375l1.28125 0l0 -4.765625q0 -0.734375 -0.1875 -1.28125q-0.171875 -0.546875 -0.515625 -0.90625q-0.34375 -0.34375 -0.828125 -0.515625q-0.46875 -0.171875 -1.0625 -0.171875q-0.4375 0.015625 -0.828125 0.140625q-0.390625 0.109375 -0.71875 0.34375q-0.234375 0.140625 -0.4375 0.34375q-0.1875 0.1875 -0.34375 0.421875l-0.09375 -1.109375l-1.15625 0l0 7.5z" fill-rule="nonzero"/><path fill="#f4cccc" d="m110.50033 258.3646l48.755913 0l0 48.75592l-48.755913 0z" fill-rule="evenodd"/><path stroke="#000000" stroke-width="0.7611548556430446" stroke-linejoin="round" stroke-linecap="butt" d="m110.50033 258.3646l48.755913 0l0 48.75592l-48.755913 0z" fill-rule="evenodd"/><path fill="#000000" d="m138.15259 284.0102l0 -2.359375q0 -0.96875 -0.21875 -1.703125q-0.21875 -0.75 -0.640625 -1.265625q-0.421875 -0.515625 -1.03125 -0.78125q-0.59375 -0.265625 -1.375 -0.265625q-0.765625 0 -1.375 0.265625q-0.609375 0.265625 -1.015625 0.78125q-0.421875 0.515625 -0.65625 1.265625q-0.21875 0.734375 -0.21875 1.703125l0 2.359375q0 0.96875 0.21875 1.71875q0.234375 0.734375 0.65625 1.234375q0.421875 0.53125 1.03125 0.796875q0.609375 0.25 1.375 0.25q0.78125 0 1.375 -0.265625q0.609375 -0.265625 1.015625 -0.78125q0.421875 -0.5 0.640625 -1.234375q0.21875 -0.75 0.21875 -1.71875zm-5.234375 -0.25q0 -0.1875 0 -0.359375q0 -0.171875 0 -0.34375l0 -1.6875q0 -0.71875 0.140625 -1.25q0.140625 -0.53125 0.4375 -0.875q0.234375 -0.265625 0.578125 -0.40625q0.359375 -0.140625 0.8125 -0.140625q0.453125 0 0.796875 0.125q0.34375 0.125 0.578125 0.390625q0.234375 0.265625 0.375 0.65625q0.15625 0.375 0.203125 0.875l-3.921875 3.015625zm3.953125 0.515625q0 0.75 -0.15625 1.296875q-0.140625 0.546875 -0.46875 0.890625q-0.234375 0.25 -0.578125 0.375q-0.328125 0.125 -0.765625 0.125q-0.421875 0 -0.75 -0.109375q-0.328125 -0.125 -0.5625 -0.359375q-0.265625 -0.25 -0.421875 -0.625q-0.15625 -0.390625 -0.21875 -0.90625l3.921875 -3.0q0 0.203125 0 0.5q0 0.28125 0 0.390625l0 1.421875z" fill-rule="nonzero"/><path fill="#f4cccc" d="m159.25624 258.3646l48.755905 0l0 48.75592l-48.755905 0z" fill-rule="evenodd"/><path stroke="#000000" stroke-width="0.7611548556430446" stroke-linejoin="round" stroke-linecap="butt" d="m159.25624 258.3646l48.755905 0l0 48.75592l-48.755905 0z" fill-rule="evenodd"/><path fill="#000000" d="m186.9085 284.0102l0 -2.359375q0 -0.96875 -0.21875 -1.703125q-0.21875 -0.75 -0.640625 -1.265625q-0.421875 -0.515625 -1.03125 -0.78125q-0.59375 -0.265625 -1.375 -0.265625q-0.765625 0 -1.375 0.265625q-0.609375 0.265625 -1.015625 0.78125q-0.421875 0.515625 -0.65625 1.265625q-0.21875 0.734375 -0.21875 1.703125l0 2.359375q0 0.96875 0.21875 1.71875q0.234375 0.734375 0.65625 1.234375q0.421875 0.53125 1.03125 0.796875q0.609375 0.25 1.375 0.25q0.78125 0 1.375 -0.265625q0.609375 -0.265625 1.015625 -0.78125q0.421875 -0.5 0.640625 -1.234375q0.21875 -0.75 0.21875 -1.71875zm-5.234375 -0.25q0 -0.1875 0 -0.359375q0 -0.171875 0 -0.34375l0 -1.6875q0 -0.71875 0.140625 -1.25q0.140625 -0.53125 0.4375 -0.875q0.234375 -0.265625 0.578125 -0.40625q0.359375 -0.140625 0.8125 -0.140625q0.453125 0 0.796875 0.125q0.34375 0.125 0.578125 0.390625q0.234375 0.265625 0.375 0.65625q0.15625 0.375 0.203125 0.875l-3.921875 3.015625zm3.953125 0.515625q0 0.75 -0.15625 1.296875q-0.140625 0.546875 -0.46875 0.890625q-0.234375 0.25 -0.578125 0.375q-0.328125 0.125 -0.765625 0.125q-0.421875 0 -0.75 -0.109375q-0.328125 -0.125 -0.5625 -0.359375q-0.265625 -0.25 -0.421875 -0.625q-0.15625 -0.390625 -0.21875 -0.90625l3.921875 -3.0q0 0.203125 0 0.5q0 0.28125 0 0.390625l0 1.421875z" fill-rule="nonzero"/><path fill="#f4cccc" d="m208.01215 258.3646l48.75589 0l0 48.75592l-48.75589 0z" fill-rule="evenodd"/><path stroke="#000000" stroke-width="0.7611548556430446" stroke-linejoin="round" stroke-linecap="butt" d="m208.01215 258.3646l48.75589 0l0 48.75592l-48.75589 0z" fill-rule="evenodd"/><path fill="#000000" d="m235.6644 284.0102l0 -2.359375q0 -0.96875 -0.21875 -1.703125q-0.21875 -0.75 -0.640625 -1.265625q-0.421875 -0.515625 -1.03125 -0.78125q-0.59375 -0.265625 -1.375 -0.265625q-0.765625 0 -1.375 0.265625q-0.609375 0.265625 -1.015625 0.78125q-0.421875 0.515625 -0.65625 1.265625q-0.21875 0.734375 -0.21875 1.703125l0 2.359375q0 0.96875 0.21875 1.71875q0.234375 0.734375 0.65625 1.234375q0.421875 0.53125 1.03125 0.796875q0.609375 0.25 1.375 0.25q0.78125 0 1.375 -0.265625q0.609375 -0.265625 1.015625 -0.78125q0.421875 -0.5 0.640625 -1.234375q0.21875 -0.75 0.21875 -1.71875zm-5.234375 -0.25q0 -0.1875 0 -0.359375q0 -0.171875 0 -0.34375l0 -1.6875q0 -0.71875 0.140625 -1.25q0.140625 -0.53125 0.4375 -0.875q0.234375 -0.265625 0.578125 -0.40625q0.359375 -0.140625 0.8125 -0.140625q0.453125 0 0.796875 0.125q0.34375 0.125 0.578125 0.390625q0.234375 0.265625 0.375 0.65625q0.15625 0.375 0.203125 0.875l-3.921875 3.015625zm3.953125 0.515625q0 0.75 -0.15625 1.296875q-0.140625 0.546875 -0.46875 0.890625q-0.234375 0.25 -0.578125 0.375q-0.328125 0.125 -0.765625 0.125q-0.421875 0 -0.75 -0.109375q-0.328125 -0.125 -0.5625 -0.359375q-0.265625 -0.25 -0.421875 -0.625q-0.15625 -0.390625 -0.21875 -0.90625l3.921875 -3.0q0 0.203125 0 0.5q0 0.28125 0 0.390625l0 1.421875z" fill-rule="nonzero"/><path fill="#f4cccc" d="m256.78378 258.3646l48.75592 0l0 48.75592l-48.75592 0z" fill-rule="evenodd"/><path stroke="#000000" stroke-width="0.7611548556430446" stroke-linejoin="round" stroke-linecap="butt" d="m256.78378 258.3646l48.75592 0l0 48.75592l-48.75592 0z" fill-rule="evenodd"/><path fill="#000000" d="m284.43607 284.0102l0 -2.359375q0 -0.96875 -0.21875 -1.703125q-0.21875 -0.75 -0.640625 -1.265625q-0.421875 -0.515625 -1.03125 -0.78125q-0.59375 -0.265625 -1.375 -0.265625q-0.765625 0 -1.375 0.265625q-0.609375 0.265625 -1.015625 0.78125q-0.421875 0.515625 -0.65625 1.265625q-0.21875 0.734375 -0.21875 1.703125l0 2.359375q0 0.96875 0.21875 1.71875q0.234375 0.734375 0.65625 1.234375q0.421875 0.53125 1.03125 0.796875q0.609375 0.25 1.375 0.25q0.78125 0 1.375 -0.265625q0.609375 -0.265625 1.015625 -0.78125q0.421875 -0.5 0.640625 -1.234375q0.21875 -0.75 0.21875 -1.71875zm-5.234375 -0.25q0 -0.1875 0 -0.359375q0 -0.171875 0 -0.34375l0 -1.6875q0 -0.71875 0.140625 -1.25q0.140625 -0.53125 0.4375 -0.875q0.234375 -0.265625 0.578125 -0.40625q0.359375 -0.140625 0.8125 -0.140625q0.453125 0 0.796875 0.125q0.34375 0.125 0.578125 0.390625q0.234375 0.265625 0.375 0.65625q0.15625 0.375 0.203125 0.875l-3.921875 3.015625zm3.953125 0.515625q0 0.75 -0.15625 1.296875q-0.140625 0.546875 -0.46875 0.890625q-0.234375 0.25 -0.578125 0.375q-0.328125 0.125 -0.765625 0.125q-0.421875 0 -0.75 -0.109375q-0.328125 -0.125 -0.5625 -0.359375q-0.265625 -0.25 -0.421875 -0.625q-0.15625 -0.390625 -0.21875 -0.90625l3.921875 -3.0q0 0.203125 0 0.5q0 0.28125 0 0.390625l0 1.421875z" fill-rule="nonzero"/><path fill="#f4cccc" d="m305.54758 258.3646l48.75589 0l0 48.75592l-48.75589 0z" fill-rule="evenodd"/><path stroke="#000000" stroke-width="0.7611548556430446" stroke-linejoin="round" stroke-linecap="butt" d="m305.54758 258.3646l48.75589 0l0 48.75592l-48.75589 0z" fill-rule="evenodd"/><path fill="#000000" d="m333.19983 284.0102l0 -2.359375q0 -0.96875 -0.21875 -1.703125q-0.21875 -0.75 -0.640625 -1.265625q-0.421875 -0.515625 -1.03125 -0.78125q-0.59375 -0.265625 -1.375 -0.265625q-0.765625 0 -1.375 0.265625q-0.609375 0.265625 -1.015625 0.78125q-0.421875 0.515625 -0.65625 1.265625q-0.21875 0.734375 -0.21875 1.703125l0 2.359375q0 0.96875 0.21875 1.71875q0.234375 0.734375 0.65625 1.234375q0.421875 0.53125 1.03125 0.796875q0.609375 0.25 1.375 0.25q0.78125 0 1.375 -0.265625q0.609375 -0.265625 1.015625 -0.78125q0.421875 -0.5 0.640625 -1.234375q0.21875 -0.75 0.21875 -1.71875zm-5.234375 -0.25q0 -0.1875 0 -0.359375q0 -0.171875 0 -0.34375l0 -1.6875q0 -0.71875 0.140625 -1.25q0.140625 -0.53125 0.4375 -0.875q0.234375 -0.265625 0.578125 -0.40625q0.359375 -0.140625 0.8125 -0.140625q0.453125 0 0.796875 0.125q0.34375 0.125 0.578125 0.390625q0.234375 0.265625 0.375 0.65625q0.15625 0.375 0.203125 0.875l-3.921875 3.015625zm3.953125 0.515625q0 0.75 -0.15625 1.296875q-0.140625 0.546875 -0.46875 0.890625q-0.234375 0.25 -0.578125 0.375q-0.328125 0.125 -0.765625 0.125q-0.421875 0 -0.75 -0.109375q-0.328125 -0.125 -0.5625 -0.359375q-0.265625 -0.25 -0.421875 -0.625q-0.15625 -0.390625 -0.21875 -0.90625l3.921875 -3.0q0 0.203125 0 0.5q0 0.28125 0 0.390625l0 1.421875z" fill-rule="nonzero"/><path fill="#f4cccc" d="m354.31528 258.3646l48.75592 0l0 48.75592l-48.75592 0z" fill-rule="evenodd"/><path stroke="#000000" stroke-width="0.7611548556430446" stroke-linejoin="round" stroke-linecap="butt" d="m354.31528 258.3646l48.75592 0l0 48.75592l-48.75592 0z" fill-rule="evenodd"/><path fill="#000000" d="m381.96756 284.0102l0 -2.359375q0 -0.96875 -0.21875 -1.703125q-0.21875 -0.75 -0.640625 -1.265625q-0.421875 -0.515625 -1.03125 -0.78125q-0.59375 -0.265625 -1.375 -0.265625q-0.765625 0 -1.375 0.265625q-0.609375 0.265625 -1.015625 0.78125q-0.421875 0.515625 -0.65625 1.265625q-0.21875 0.734375 -0.21875 1.703125l0 2.359375q0 0.96875 0.21875 1.71875q0.234375 0.734375 0.65625 1.234375q0.421875 0.53125 1.03125 0.796875q0.609375 0.25 1.375 0.25q0.78125 0 1.375 -0.265625q0.609375 -0.265625 1.015625 -0.78125q0.421875 -0.5 0.640625 -1.234375q0.21875 -0.75 0.21875 -1.71875zm-5.234375 -0.25q0 -0.1875 0 -0.359375q0 -0.171875 0 -0.34375l0 -1.6875q0 -0.71875 0.140625 -1.25q0.140625 -0.53125 0.4375 -0.875q0.234375 -0.265625 0.578125 -0.40625q0.359375 -0.140625 0.8125 -0.140625q0.453125 0 0.796875 0.125q0.34375 0.125 0.578125 0.390625q0.234375 0.265625 0.375 0.65625q0.15625 0.375 0.203125 0.875l-3.921875 3.015625zm3.953125 0.515625q0 0.75 -0.15625 1.296875q-0.140625 0.546875 -0.46875 0.890625q-0.234375 0.25 -0.578125 0.375q-0.328125 0.125 -0.765625 0.125q-0.421875 0 -0.75 -0.109375q-0.328125 -0.125 -0.5625 -0.359375q-0.265625 -0.25 -0.421875 -0.625q-0.15625 -0.390625 -0.21875 -0.90625l3.921875 -3.0q0 0.203125 0 0.5q0 0.28125 0 0.390625l0 1.421875z" fill-rule="nonzero"/><path fill="#f4cccc" d="m403.08694 258.3646l48.75592 0l0 48.75592l-48.75592 0z" fill-rule="evenodd"/><path stroke="#000000" stroke-width="0.7611548556430446" stroke-linejoin="round" stroke-linecap="butt" d="m403.08694 258.3646l48.75592 0l0 48.75592l-48.75592 0z" fill-rule="evenodd"/><path fill="#000000" d="m430.7392 284.0102l0 -2.359375q0 -0.96875 -0.21875 -1.703125q-0.21875 -0.75 -0.640625 -1.265625q-0.421875 -0.515625 -1.03125 -0.78125q-0.59375 -0.265625 -1.375 -0.265625q-0.765625 0 -1.375 0.265625q-0.609375 0.265625 -1.015625 0.78125q-0.421875 0.515625 -0.65625 1.265625q-0.21875 0.734375 -0.21875 1.703125l0 2.359375q0 0.96875 0.21875 1.71875q0.234375 0.734375 0.65625 1.234375q0.421875 0.53125 1.03125 0.796875q0.609375 0.25 1.375 0.25q0.78125 0 1.375 -0.265625q0.609375 -0.265625 1.015625 -0.78125q0.421875 -0.5 0.640625 -1.234375q0.21875 -0.75 0.21875 -1.71875zm-5.234375 -0.25q0 -0.1875 0 -0.359375q0 -0.171875 0 -0.34375l0 -1.6875q0 -0.71875 0.140625 -1.25q0.140625 -0.53125 0.4375 -0.875q0.234375 -0.265625 0.578125 -0.40625q0.359375 -0.140625 0.8125 -0.140625q0.453125 0 0.796875 0.125q0.34375 0.125 0.578125 0.390625q0.234375 0.265625 0.375 0.65625q0.15625 0.375 0.203125 0.875l-3.921875 3.015625zm3.953125 0.515625q0 0.75 -0.15625 1.296875q-0.140625 0.546875 -0.46875 0.890625q-0.234375 0.25 -0.578125 0.375q-0.328125 0.125 -0.765625 0.125q-0.421875 0 -0.75 -0.109375q-0.328125 -0.125 -0.5625 -0.359375q-0.265625 -0.25 -0.421875 -0.625q-0.15625 -0.390625 -0.21875 -0.90625l3.921875 -3.0q0 0.203125 0 0.5q0 0.28125 0 0.390625l0 1.421875z" fill-rule="nonzero"/><path fill="#f4cccc" d="m451.8468 258.3646l48.75589 0l0 48.75592l-48.75589 0z" fill-rule="evenodd"/><path stroke="#000000" stroke-width="0.7611548556430446" stroke-linejoin="round" stroke-linecap="butt" d="m451.8468 258.3646l48.75589 0l0 48.75592l-48.75589 0z" fill-rule="evenodd"/><path fill="#000000" d="m479.49905 284.0102l0 -2.359375q0 -0.96875 -0.21875 -1.703125q-0.21875 -0.75 -0.640625 -1.265625q-0.421875 -0.515625 -1.03125 -0.78125q-0.59375 -0.265625 -1.375 -0.265625q-0.765625 0 -1.375 0.265625q-0.609375 0.265625 -1.015625 0.78125q-0.421875 0.515625 -0.65625 1.265625q-0.21875 0.734375 -0.21875 1.703125l0 2.359375q0 0.96875 0.21875 1.71875q0.234375 0.734375 0.65625 1.234375q0.421875 0.53125 1.03125 0.796875q0.609375 0.25 1.375 0.25q0.78125 0 1.375 -0.265625q0.609375 -0.265625 1.015625 -0.78125q0.421875 -0.5 0.640625 -1.234375q0.21875 -0.75 0.21875 -1.71875zm-5.234375 -0.25q0 -0.1875 0 -0.359375q0 -0.171875 0 -0.34375l0 -1.6875q0 -0.71875 0.140625 -1.25q0.140625 -0.53125 0.4375 -0.875q0.234375 -0.265625 0.578125 -0.40625q0.359375 -0.140625 0.8125 -0.140625q0.453125 0 0.796875 0.125q0.34375 0.125 0.578125 0.390625q0.234375 0.265625 0.375 0.65625q0.15625 0.375 0.203125 0.875l-3.921875 3.015625zm3.953125 0.515625q0 0.75 -0.15625 1.296875q-0.140625 0.546875 -0.46875 0.890625q-0.234375 0.25 -0.578125 0.375q-0.328125 0.125 -0.765625 0.125q-0.421875 0 -0.75 -0.109375q-0.328125 -0.125 -0.5625 -0.359375q-0.265625 -0.25 -0.421875 -0.625q-0.15625 -0.390625 -0.21875 -0.90625l3.921875 -3.0q0 0.203125 0 0.5q0 0.28125 0 0.390625l0 1.421875z" fill-rule="nonzero"/><path fill="#cfe2f3" d="m500.60992 258.3646l48.75592 0l0 48.75592l-48.75592 0z" fill-rule="evenodd"/><path stroke="#000000" stroke-width="0.7611548556430446" stroke-linejoin="round" stroke-linecap="butt" d="m500.60992 258.3646l48.75592 0l0 48.75592l-48.75592 0z" fill-rule="evenodd"/><path fill="#000000" d="m526.0903 287.86957l0 -10.09375l-0.09375 0l-3.828125 1.46875l0 1.171875l2.640625 -1.0l0 8.453125l1.28125 0z" fill-rule="nonzero"/><path fill="#f4cccc" d="m549.3783 258.3646l48.75592 0l0 48.75592l-48.75592 0z" fill-rule="evenodd"/><path stroke="#000000" stroke-width="0.7611548556430446" stroke-linejoin="round" stroke-linecap="butt" d="m549.3783 258.3646l48.75592 0l0 48.75592l-48.75592 0z" fill-rule="evenodd"/><path fill="#000000" d="m577.0305 284.0102l0 -2.359375q0 -0.96875 -0.21875 -1.703125q-0.21875 -0.75 -0.640625 -1.265625q-0.421875 -0.515625 -1.03125 -0.78125q-0.59375 -0.265625 -1.375 -0.265625q-0.765625 0 -1.375 0.265625q-0.609375 0.265625 -1.015625 0.78125q-0.421875 0.515625 -0.65625 1.265625q-0.21875 0.734375 -0.21875 1.703125l0 2.359375q0 0.96875 0.21875 1.71875q0.234375 0.734375 0.65625 1.234375q0.421875 0.53125 1.03125 0.796875q0.609375 0.25 1.375 0.25q0.78125 0 1.375 -0.265625q0.609375 -0.265625 1.015625 -0.78125q0.421875 -0.5 0.640625 -1.234375q0.21875 -0.75 0.21875 -1.71875zm-5.234375 -0.25q0 -0.1875 0 -0.359375q0 -0.171875 0 -0.34375l0 -1.6875q0 -0.71875 0.140625 -1.25q0.140625 -0.53125 0.4375 -0.875q0.234375 -0.265625 0.578125 -0.40625q0.359375 -0.140625 0.8125 -0.140625q0.453125 0 0.796875 0.125q0.34375 0.125 0.578125 0.390625q0.234375 0.265625 0.375 0.65625q0.15625 0.375 0.203125 0.875l-3.921875 3.015625zm3.953125 0.515625q0 0.75 -0.15625 1.296875q-0.140625 0.546875 -0.46875 0.890625q-0.234375 0.25 -0.578125 0.375q-0.328125 0.125 -0.765625 0.125q-0.421875 0 -0.75 -0.109375q-0.328125 -0.125 -0.5625 -0.359375q-0.265625 -0.25 -0.421875 -0.625q-0.15625 -0.390625 -0.21875 -0.90625l3.921875 -3.0q0 0.203125 0 0.5q0 0.28125 0 0.390625l0 1.421875z" fill-rule="nonzero"/><path fill="#f4cccc" d="m598.1381 258.3646l48.75592 0l0 48.75592l-48.75592 0z" fill-rule="evenodd"/><path stroke="#000000" stroke-width="0.7611548556430446" stroke-linejoin="round" stroke-linecap="butt" d="m598.1381 258.3646l48.75592 0l0 48.75592l-48.75592 0z" fill-rule="evenodd"/><path fill="#000000" d="m625.7904 284.0102l0 -2.359375q0 -0.96875 -0.21875 -1.703125q-0.21875 -0.75 -0.640625 -1.265625q-0.421875 -0.515625 -1.03125 -0.78125q-0.59375 -0.265625 -1.375 -0.265625q-0.765625 0 -1.375 0.265625q-0.609375 0.265625 -1.015625 0.78125q-0.421875 0.515625 -0.65625 1.265625q-0.21875 0.734375 -0.21875 1.703125l0 2.359375q0 0.96875 0.21875 1.71875q0.234375 0.734375 0.65625 1.234375q0.421875 0.53125 1.03125 0.796875q0.609375 0.25 1.375 0.25q0.78125 0 1.375 -0.265625q0.609375 -0.265625 1.015625 -0.78125q0.421875 -0.5 0.640625 -1.234375q0.21875 -0.75 0.21875 -1.71875zm-5.234375 -0.25q0 -0.1875 0 -0.359375q0 -0.171875 0 -0.34375l0 -1.6875q0 -0.71875 0.140625 -1.25q0.140625 -0.53125 0.4375 -0.875q0.234375 -0.265625 0.578125 -0.40625q0.359375 -0.140625 0.8125 -0.140625q0.453125 0 0.796875 0.125q0.34375 0.125 0.578125 0.390625q0.234375 0.265625 0.375 0.65625q0.15625 0.375 0.203125 0.875l-3.921875 3.015625zm3.953125 0.515625q0 0.75 -0.15625 1.296875q-0.140625 0.546875 -0.46875 0.890625q-0.234375 0.25 -0.578125 0.375q-0.328125 0.125 -0.765625 0.125q-0.421875 0 -0.75 -0.109375q-0.328125 -0.125 -0.5625 -0.359375q-0.265625 -0.25 -0.421875 -0.625q-0.15625 -0.390625 -0.21875 -0.90625l3.921875 -3.0q0 0.203125 0 0.5q0 0.28125 0 0.390625l0 1.421875z" fill-rule="nonzero"/><path fill="#f4cccc" d="m646.89734 258.3646l48.75586 0l0 48.75592l-48.75586 0z" fill-rule="evenodd"/><path stroke="#000000" stroke-width="0.7611548556430446" stroke-linejoin="round" stroke-linecap="butt" d="m646.89734 258.3646l48.75586 0l0 48.75592l-48.75586 0z" fill-rule="evenodd"/><path fill="#000000" d="m674.54956 284.0102l0 -2.359375q0 -0.96875 -0.21875 -1.703125q-0.21875 -0.75 -0.640625 -1.265625q-0.421875 -0.515625 -1.03125 -0.78125q-0.59375 -0.265625 -1.375 -0.265625q-0.765625 0 -1.375 0.265625q-0.609375 0.265625 -1.015625 0.78125q-0.421875 0.515625 -0.65625 1.265625q-0.21875 0.734375 -0.21875 1.703125l0 2.359375q0 0.96875 0.21875 1.71875q0.234375 0.734375 0.65625 1.234375q0.421875 0.53125 1.03125 0.796875q0.609375 0.25 1.375 0.25q0.78125 0 1.375 -0.265625q0.609375 -0.265625 1.015625 -0.78125q0.421875 -0.5 0.640625 -1.234375q0.21875 -0.75 0.21875 -1.71875zm-5.234375 -0.25q0 -0.1875 0 -0.359375q0 -0.171875 0 -0.34375l0 -1.6875q0 -0.71875 0.140625 -1.25q0.140625 -0.53125 0.4375 -0.875q0.234375 -0.265625 0.578125 -0.40625q0.359375 -0.140625 0.8125 -0.140625q0.453125 0 0.796875 0.125q0.34375 0.125 0.578125 0.390625q0.234375 0.265625 0.375 0.65625q0.15625 0.375 0.203125 0.875l-3.921875 3.015625zm3.953125 0.515625q0 0.75 -0.15625 1.296875q-0.140625 0.546875 -0.46875 0.890625q-0.234375 0.25 -0.578125 0.375q-0.328125 0.125 -0.765625 0.125q-0.421875 0 -0.75 -0.109375q-0.328125 -0.125 -0.5625 -0.359375q-0.265625 -0.25 -0.421875 -0.625q-0.15625 -0.390625 -0.21875 -0.90625l3.921875 -3.0q0 0.203125 0 0.5q0 0.28125 0 0.390625l0 1.421875z" fill-rule="nonzero"/><path fill="#f4cccc" d="m695.6657 258.3646l48.75586 0l0 48.75592l-48.75586 0z" fill-rule="evenodd"/><path stroke="#000000" stroke-width="0.7611548556430446" stroke-linejoin="round" stroke-linecap="butt" d="m695.6657 258.3646l48.75586 0l0 48.75592l-48.75586 0z" fill-rule="evenodd"/><path fill="#000000" d="m723.31793 284.0102l0 -2.359375q0 -0.96875 -0.21875 -1.703125q-0.21875 -0.75 -0.640625 -1.265625q-0.421875 -0.515625 -1.03125 -0.78125q-0.59375 -0.265625 -1.375 -0.265625q-0.765625 0 -1.375 0.265625q-0.609375 0.265625 -1.015625 0.78125q-0.421875 0.515625 -0.65625 1.265625q-0.21875 0.734375 -0.21875 1.703125l0 2.359375q0 0.96875 0.21875 1.71875q0.234375 0.734375 0.65625 1.234375q0.421875 0.53125 1.03125 0.796875q0.609375 0.25 1.375 0.25q0.78125 0 1.375 -0.265625q0.609375 -0.265625 1.015625 -0.78125q0.421875 -0.5 0.640625 -1.234375q0.21875 -0.75 0.21875 -1.71875zm-5.234375 -0.25q0 -0.1875 0 -0.359375q0 -0.171875 0 -0.34375l0 -1.6875q0 -0.71875 0.140625 -1.25q0.140625 -0.53125 0.4375 -0.875q0.234375 -0.265625 0.578125 -0.40625q0.359375 -0.140625 0.8125 -0.140625q0.453125 0 0.796875 0.125q0.34375 0.125 0.578125 0.390625q0.234375 0.265625 0.375 0.65625q0.15625 0.375 0.203125 0.875l-3.921875 3.015625zm3.953125 0.515625q0 0.75 -0.15625 1.296875q-0.140625 0.546875 -0.46875 0.890625q-0.234375 0.25 -0.578125 0.375q-0.328125 0.125 -0.765625 0.125q-0.421875 0 -0.75 -0.109375q-0.328125 -0.125 -0.5625 -0.359375q-0.265625 -0.25 -0.421875 -0.625q-0.15625 -0.390625 -0.21875 -0.90625l3.921875 -3.0q0 0.203125 0 0.5q0 0.28125 0 0.390625l0 1.421875z" fill-rule="nonzero"/><path fill="#f4cccc" d="m744.42944 258.3646l48.75592 0l0 48.75592l-48.75592 0z" fill-rule="evenodd"/><path stroke="#000000" stroke-width="0.7611548556430446" stroke-linejoin="round" stroke-linecap="butt" d="m744.42944 258.3646l48.75592 0l0 48.75592l-48.75592 0z" fill-rule="evenodd"/><path fill="#000000" d="m772.0817 284.0102l0 -2.359375q0 -0.96875 -0.21875 -1.703125q-0.21875 -0.75 -0.640625 -1.265625q-0.421875 -0.515625 -1.03125 -0.78125q-0.59375 -0.265625 -1.375 -0.265625q-0.765625 0 -1.375 0.265625q-0.609375 0.265625 -1.015625 0.78125q-0.421875 0.515625 -0.65625 1.265625q-0.21875 0.734375 -0.21875 1.703125l0 2.359375q0 0.96875 0.21875 1.71875q0.234375 0.734375 0.65625 1.234375q0.421875 0.53125 1.03125 0.796875q0.609375 0.25 1.375 0.25q0.78125 0 1.375 -0.265625q0.609375 -0.265625 1.015625 -0.78125q0.421875 -0.5 0.640625 -1.234375q0.21875 -0.75 0.21875 -1.71875zm-5.234375 -0.25q0 -0.1875 0 -0.359375q0 -0.171875 0 -0.34375l0 -1.6875q0 -0.71875 0.140625 -1.25q0.140625 -0.53125 0.4375 -0.875q0.234375 -0.265625 0.578125 -0.40625q0.359375 -0.140625 0.8125 -0.140625q0.453125 0 0.796875 0.125q0.34375 0.125 0.578125 0.390625q0.234375 0.265625 0.375 0.65625q0.15625 0.375 0.203125 0.875l-3.921875 3.015625zm3.953125 0.515625q0 0.75 -0.15625 1.296875q-0.140625 0.546875 -0.46875 0.890625q-0.234375 0.25 -0.578125 0.375q-0.328125 0.125 -0.765625 0.125q-0.421875 0 -0.75 -0.109375q-0.328125 -0.125 -0.5625 -0.359375q-0.265625 -0.25 -0.421875 -0.625q-0.15625 -0.390625 -0.21875 -0.90625l3.921875 -3.0q0 0.203125 0 0.5q0 0.28125 0 0.390625l0 1.421875z" fill-rule="nonzero"/><path fill="#f4cccc" d="m793.19324 258.3646l48.75592 0l0 48.75592l-48.75592 0z" fill-rule="evenodd"/><path stroke="#000000" stroke-width="0.7611548556430446" stroke-linejoin="round" stroke-linecap="butt" d="m793.19324 258.3646l48.75592 0l0 48.75592l-48.75592 0z" fill-rule="evenodd"/><path fill="#000000" d="m820.8455 284.0102l0 -2.359375q0 -0.96875 -0.21875 -1.703125q-0.21875 -0.75 -0.640625 -1.265625q-0.421875 -0.515625 -1.03125 -0.78125q-0.59375 -0.265625 -1.375 -0.265625q-0.765625 0 -1.375 0.265625q-0.609375 0.265625 -1.015625 0.78125q-0.421875 0.515625 -0.65625 1.265625q-0.21875 0.734375 -0.21875 1.703125l0 2.359375q0 0.96875 0.21875 1.71875q0.234375 0.734375 0.65625 1.234375q0.421875 0.53125 1.03125 0.796875q0.609375 0.25 1.375 0.25q0.78125 0 1.375 -0.265625q0.609375 -0.265625 1.015625 -0.78125q0.421875 -0.5 0.640625 -1.234375q0.21875 -0.75 0.21875 -1.71875zm-5.234375 -0.25q0 -0.1875 0 -0.359375q0 -0.171875 0 -0.34375l0 -1.6875q0 -0.71875 0.140625 -1.25q0.140625 -0.53125 0.4375 -0.875q0.234375 -0.265625 0.578125 -0.40625q0.359375 -0.140625 0.8125 -0.140625q0.453125 0 0.796875 0.125q0.34375 0.125 0.578125 0.390625q0.234375 0.265625 0.375 0.65625q0.15625 0.375 0.203125 0.875l-3.921875 3.015625zm3.953125 0.515625q0 0.75 -0.15625 1.296875q-0.140625 0.546875 -0.46875 0.890625q-0.234375 0.25 -0.578125 0.375q-0.328125 0.125 -0.765625 0.125q-0.421875 0 -0.75 -0.109375q-0.328125 -0.125 -0.5625 -0.359375q-0.265625 -0.25 -0.421875 -0.625q-0.15625 -0.390625 -0.21875 -0.90625l3.921875 -3.0q0 0.203125 0 0.5q0 0.28125 0 0.390625l0 1.421875z" fill-rule="nonzero"/><path fill="#f4cccc" d="m841.95703 258.3646l48.75592 0l0 48.75592l-48.75592 0z" fill-rule="evenodd"/><path stroke="#000000" stroke-width="0.7611548556430446" stroke-linejoin="round" stroke-linecap="butt" d="m841.95703 258.3646l48.75592 0l0 48.75592l-48.75592 0z" fill-rule="evenodd"/><path fill="#000000" d="m869.60925 284.0102l0 -2.359375q0 -0.96875 -0.21875 -1.703125q-0.21875 -0.75 -0.640625 -1.265625q-0.421875 -0.515625 -1.03125 -0.78125q-0.59375 -0.265625 -1.375 -0.265625q-0.765625 0 -1.375 0.265625q-0.609375 0.265625 -1.015625 0.78125q-0.421875 0.515625 -0.65625 1.265625q-0.21875 0.734375 -0.21875 1.703125l0 2.359375q0 0.96875 0.21875 1.71875q0.234375 0.734375 0.65625 1.234375q0.421875 0.53125 1.03125 0.796875q0.609375 0.25 1.375 0.25q0.78125 0 1.375 -0.265625q0.609375 -0.265625 1.015625 -0.78125q0.421875 -0.5 0.640625 -1.234375q0.21875 -0.75 0.21875 -1.71875zm-5.234375 -0.25q0 -0.1875 0 -0.359375q0 -0.171875 0 -0.34375l0 -1.6875q0 -0.71875 0.140625 -1.25q0.140625 -0.53125 0.4375 -0.875q0.234375 -0.265625 0.578125 -0.40625q0.359375 -0.140625 0.8125 -0.140625q0.453125 0 0.796875 0.125q0.34375 0.125 0.578125 0.390625q0.234375 0.265625 0.375 0.65625q0.15625 0.375 0.203125 0.875l-3.921875 3.015625zm3.953125 0.515625q0 0.75 -0.15625 1.296875q-0.140625 0.546875 -0.46875 0.890625q-0.234375 0.25 -0.578125 0.375q-0.328125 0.125 -0.765625 0.125q-0.421875 0 -0.75 -0.109375q-0.328125 -0.125 -0.5625 -0.359375q-0.265625 -0.25 -0.421875 -0.625q-0.15625 -0.390625 -0.21875 -0.90625l3.921875 -3.0q0 0.203125 0 0.5q0 0.28125 0 0.390625l0 1.421875z" fill-rule="nonzero"/><path fill="#000000" fill-opacity="0.0" d="m120.84679 22.488268l28.062988 0l0 42.015747l-28.062988 0z" fill-rule="evenodd"/><path fill="#000000" d="m139.75304 44.33014l0 -3.109375q0 -1.265625 -0.296875 -2.234375q-0.28125 -0.984375 -0.828125 -1.65625q-0.5625 -0.671875 -1.359375 -1.015625q-0.796875 -0.359375 -1.8125 -0.359375q-1.015625 0 -1.8125 0.359375q-0.796875 0.34375 -1.34375 1.015625q-0.546875 0.671875 -0.84375 1.65625q-0.28125 0.96875 -0.28125 2.234375l0 3.109375q0 1.265625 0.28125 2.25q0.296875 0.984375 0.84375 1.640625q0.5625 0.6875 1.359375 1.03125q0.8125 0.34375 1.8125 0.34375q1.03125 0 1.8125 -0.34375q0.796875 -0.359375 1.34375 -1.03125q0.546875 -0.65625 0.828125 -1.640625q0.296875 -0.984375 0.296875 -2.25zm-6.890625 -0.328125q0 -0.234375 0 -0.46875q0 -0.234375 0 -0.453125l0 -2.21875q0 -0.9375 0.1875 -1.640625q0.1875 -0.703125 0.5625 -1.15625q0.328125 -0.359375 0.78125 -0.53125q0.46875 -0.1875 1.0625 -0.1875q0.59375 0 1.046875 0.171875q0.453125 0.171875 0.765625 0.515625q0.3125 0.328125 0.5 0.84375q0.1875 0.5 0.265625 1.15625l-5.171875 3.96875zm5.203125 0.6875q0 0.96875 -0.203125 1.6875q-0.1875 0.71875 -0.609375 1.171875q-0.3125 0.328125 -0.765625 0.5q-0.4375 0.171875 -1.015625 0.171875q-0.546875 0 -0.984375 -0.15625q-0.4375 -0.15625 -0.734375 -0.46875q-0.34375 -0.328125 -0.5625 -0.828125q-0.203125 -0.515625 -0.28125 -1.171875l5.15625 -3.953125q0 0.265625 0 0.65625q0 0.375 0 0.515625l0 1.875z" fill-rule="nonzero"/><path fill="#000000" fill-opacity="0.0" d="m844.272 22.488268l44.125977 0l0 42.015747l-44.125977 0z" fill-rule="evenodd"/><path fill="#000000" d="m862.1863 49.408264l0 -13.265625l-0.125 0l-5.03125 1.9375l0 1.53125l3.46875 -1.3125l0 11.109375l1.6875 0zm6.3361816 -6.65625l1.34375 0.359375q0.234375 -0.203125 0.4375 -0.359375q0.21875 -0.15625 0.46875 -0.265625q0.25 -0.109375 0.546875 -0.171875q0.3125 -0.0625 0.734375 -0.0625q0.625 0 1.109375 0.234375q0.5 0.21875 0.84375 0.625q0.328125 0.390625 0.5 0.9375q0.1875 0.53125 0.1875 1.15625q0 0.671875 -0.15625 1.234375q-0.15625 0.5625 -0.46875 0.953125q-0.3125 0.390625 -0.78125 0.609375q-0.46875 0.21875 -1.0625 0.21875q-1.078125 0 -1.75 -0.578125q-0.671875 -0.59375 -0.828125 -1.71875l-1.609375 0q0.09375 0.921875 0.453125 1.609375q0.359375 0.6875 0.921875 1.140625q0.5625 0.46875 1.28125 0.703125q0.71875 0.21875 1.53125 0.21875q1.046875 0 1.828125 -0.328125q0.796875 -0.34375 1.3125 -0.9375q0.5 -0.578125 0.75 -1.390625q0.265625 -0.8125 0.265625 -1.765625q0 -1.0 -0.28125 -1.8125q-0.265625 -0.828125 -0.78125 -1.40625q-0.5 -0.578125 -1.234375 -0.890625q-0.734375 -0.3125 -1.640625 -0.3125q-0.71875 0 -1.265625 0.171875q-0.546875 0.171875 -0.9375 0.390625l0.359375 -3.53125l5.390625 0l0 -1.640625l-6.8125 0l-0.65625 6.609375z" fill-rule="nonzero"/><path fill="#000000" fill-opacity="0.0" d="m134.87828 212.39084l0 45.984253" fill-rule="evenodd"/><path stroke="#000000" stroke-width="1.0" stroke-linejoin="round" stroke-linecap="butt" d="m134.87828 212.39085l0 42.55716" fill-rule="evenodd"/><path fill="#000000" stroke="#000000" stroke-width="1.0" stroke-linecap="butt" d="m134.87828 254.94801l-1.124588 -1.124588l1.124588 3.0897827l1.124588 -3.0897827z" fill-rule="evenodd"/><path fill="#000000" fill-opacity="0.0" d="m183.63419 212.39084l0 45.984253" fill-rule="evenodd"/><path stroke="#000000" stroke-width="1.0" stroke-linejoin="round" stroke-linecap="butt" d="m183.63419 212.39085l0 42.55716" fill-rule="evenodd"/><path fill="#000000" stroke="#000000" stroke-width="1.0" stroke-linecap="butt" d="m183.63419 254.94801l-1.124588 -1.124588l1.124588 3.0897827l1.124588 -3.0897827z" fill-rule="evenodd"/><path fill="#000000" fill-opacity="0.0" d="m232.39009 212.39084l0 45.984253" fill-rule="evenodd"/><path stroke="#000000" stroke-width="1.0" stroke-linejoin="round" stroke-linecap="butt" d="m232.39009 212.39085l0 42.55716" fill-rule="evenodd"/><path fill="#000000" stroke="#000000" stroke-width="1.0" stroke-linecap="butt" d="m232.39009 254.94801l-1.124588 -1.124588l1.124588 3.0897827l1.124588 -3.0897827z" fill-rule="evenodd"/><path fill="#000000" fill-opacity="0.0" d="m281.16174 212.39084l0 45.984253" fill-rule="evenodd"/><path stroke="#000000" stroke-width="1.0" stroke-linejoin="round" stroke-linecap="butt" d="m281.16174 212.39085l0 42.55716" fill-rule="evenodd"/><path fill="#000000" stroke="#000000" stroke-width="1.0" stroke-linecap="butt" d="m281.16174 254.94801l-1.1245728 -1.124588l1.1245728 3.0897827l1.1245728 -3.0897827z" fill-rule="evenodd"/><path fill="#000000" fill-opacity="0.0" d="m329.92554 212.39084l0 45.984253" fill-rule="evenodd"/><path stroke="#000000" stroke-width="1.0" stroke-linejoin="round" stroke-linecap="butt" d="m329.92554 212.39085l0 42.55716" fill-rule="evenodd"/><path fill="#000000" stroke="#000000" stroke-width="1.0" stroke-linecap="butt" d="m329.92554 254.94801l-1.1246033 -1.124588l1.1246033 3.0897827l1.1245728 -3.0897827z" fill-rule="evenodd"/><path fill="#000000" fill-opacity="0.0" d="m378.69324 212.39084l0 45.984253" fill-rule="evenodd"/><path stroke="#000000" stroke-width="1.0" stroke-linejoin="round" stroke-linecap="butt" d="m378.69324 212.39085l0 42.55716" fill-rule="evenodd"/><path fill="#000000" stroke="#000000" stroke-width="1.0" stroke-linecap="butt" d="m378.69324 254.94801l-1.1245728 -1.124588l1.1245728 3.0897827l1.1245728 -3.0897827z" fill-rule="evenodd"/><path fill="#000000" fill-opacity="0.0" d="m427.4649 212.39084l0 45.984253" fill-rule="evenodd"/><path stroke="#000000" stroke-width="1.0" stroke-linejoin="round" stroke-linecap="butt" d="m427.4649 212.39085l0 42.55716" fill-rule="evenodd"/><path fill="#000000" stroke="#000000" stroke-width="1.0" stroke-linecap="butt" d="m427.4649 254.94801l-1.1246033 -1.124588l1.1246033 3.0897827l1.1245728 -3.0897827z" fill-rule="evenodd"/><path fill="#000000" fill-opacity="0.0" d="m476.22473 212.39084l0 45.984253" fill-rule="evenodd"/><path stroke="#000000" stroke-width="1.0" stroke-linejoin="round" stroke-linecap="butt" d="m476.22473 212.39085l0 42.55716" fill-rule="evenodd"/><path fill="#000000" stroke="#000000" stroke-width="1.0" stroke-linecap="butt" d="m476.22473 254.94801l-1.1245728 -1.124588l1.1245728 3.0897827l1.1246033 -3.0897827z" fill-rule="evenodd"/><path fill="#000000" fill-opacity="0.0" d="m524.98785 212.39084l0 45.984253" fill-rule="evenodd"/><path stroke="#000000" stroke-width="1.0" stroke-linejoin="round" stroke-linecap="butt" d="m524.98785 212.39085l0 42.55716" fill-rule="evenodd"/><path fill="#000000" stroke="#000000" stroke-width="1.0" stroke-linecap="butt" d="m524.98785 254.94801l-1.1245728 -1.124588l1.1245728 3.0897827l1.1245728 -3.0897827z" fill-rule="evenodd"/><path fill="#000000" fill-opacity="0.0" d="m573.7562 212.39084l0 45.984253" fill-rule="evenodd"/><path stroke="#000000" stroke-width="1.0" stroke-linejoin="round" stroke-linecap="butt" d="m573.7562 212.39085l0 42.55716" fill-rule="evenodd"/><path fill="#000000" stroke="#000000" stroke-width="1.0" stroke-linecap="butt" d="m573.7562 254.94801l-1.1245728 -1.124588l1.1245728 3.0897827l1.1245728 -3.0897827z" fill-rule="evenodd"/><path fill="#000000" fill-opacity="0.0" d="m622.51605 212.39084l0 45.984253" fill-rule="evenodd"/><path stroke="#000000" stroke-width="1.0" stroke-linejoin="round" stroke-linecap="butt" d="m622.51605 212.39085l0 42.55716" fill-rule="evenodd"/><path fill="#000000" stroke="#000000" stroke-width="1.0" stroke-linecap="butt" d="m622.51605 254.94801l-1.1245728 -1.124588l1.1245728 3.0897827l1.1246338 -3.0897827z" fill-rule="evenodd"/><path fill="#000000" fill-opacity="0.0" d="m671.27527 212.39084l0 45.984253" fill-rule="evenodd"/><path stroke="#000000" stroke-width="1.0" stroke-linejoin="round" stroke-linecap="butt" d="m671.27527 212.39085l0 42.55716" fill-rule="evenodd"/><path fill="#000000" stroke="#000000" stroke-width="1.0" stroke-linecap="butt" d="m671.27527 254.94801l-1.1245728 -1.124588l1.1245728 3.0897827l1.1245728 -3.0897827z" fill-rule="evenodd"/><path fill="#000000" fill-opacity="0.0" d="m720.04364 212.39084l0 45.984253" fill-rule="evenodd"/><path stroke="#000000" stroke-width="1.0" stroke-linejoin="round" stroke-linecap="butt" d="m720.04364 212.39085l0 42.55716" fill-rule="evenodd"/><path fill="#000000" stroke="#000000" stroke-width="1.0" stroke-linecap="butt" d="m720.04364 254.94801l-1.1245728 -1.124588l1.1245728 3.0897827l1.1245728 -3.0897827z" fill-rule="evenodd"/><path fill="#000000" fill-opacity="0.0" d="m768.80743 212.38034l0 45.984253" fill-rule="evenodd"/><path stroke="#000000" stroke-width="1.0" stroke-linejoin="round" stroke-linecap="butt" d="m768.80743 212.38036l0 42.55716" fill-rule="evenodd"/><path fill="#000000" stroke="#000000" stroke-width="1.0" stroke-linecap="butt" d="m768.80743 254.93752l-1.1245728 -1.124588l1.1245728 3.0897827l1.1245728 -3.0897827z" fill-rule="evenodd"/><path fill="#000000" fill-opacity="0.0" d="m817.57117 212.39084l0 45.984253" fill-rule="evenodd"/><path stroke="#000000" stroke-width="1.0" stroke-linejoin="round" stroke-linecap="butt" d="m817.57117 212.39085l0 42.55716" fill-rule="evenodd"/><path fill="#000000" stroke="#000000" stroke-width="1.0" stroke-linecap="butt" d="m817.57117 254.94801l-1.1245728 -1.124588l1.1245728 3.0897827l1.1246338 -3.0897827z" fill-rule="evenodd"/><path fill="#000000" fill-opacity="0.0" d="m866.33496 212.39084l0 45.984253" fill-rule="evenodd"/><path stroke="#000000" stroke-width="1.0" stroke-linejoin="round" stroke-linecap="butt" d="m866.33496 212.39085l0 42.55716" fill-rule="evenodd"/><path fill="#000000" stroke="#000000" stroke-width="1.0" stroke-linecap="butt" d="m866.33496 254.94801l-1.1245728 -1.124588l1.1245728 3.0897827l1.1245728 -3.0897827z" fill-rule="evenodd"/><path fill="#ffffff" d="m483.5772 131.80383l29.743225 0l0 7.074524l-29.743225 0zm0 10.611786l29.743225 0l0 7.0745087l-29.743225 0z" fill-rule="evenodd"/><path stroke="#000000" stroke-width="1.0" stroke-linejoin="round" stroke-linecap="butt" d="m483.5772 131.80383l29.743225 0l0 7.074524l-29.743225 0zm0 10.611786l29.743225 0l0 7.0745087l-29.743225 0z" fill-rule="evenodd"/><path fill="#000000" fill-opacity="0.0" d="m7.6387773 64.50386l103.30708 0l0 64.62991l-103.30708 0z" fill-rule="evenodd"/><path fill="#000000" d="m53.039284 91.42386l5.125 -13.359375l1.90625 0l5.46875 13.359375l-2.015625 0l-1.546875 -4.046875l-5.59375 0l-1.46875 4.046875l-1.875 0zm3.859375 -5.484375l4.53125 0l-1.40625 -3.703125q-0.625 -1.6875 -0.9375 -2.765625q-0.265625 1.28125 -0.71875 2.546875l-1.46875 3.921875z" fill-rule="nonzero"/><path fill="#000000" d="m22.176153 117.74573q-1.359375 -1.703125 -2.296875 -4.0q-0.9375 -2.296875 -0.9375 -4.765625q0 -2.15625 0.703125 -4.140625q0.828125 -2.3125 2.53125 -4.59375l1.171875 0q-1.09375 1.890625 -1.453125 2.703125q-0.546875 1.25 -0.875 2.625q-0.390625 1.703125 -0.390625 3.421875q0 4.375 2.71875 8.75l-1.171875 0zm8.806427 -3.921875l-1.640625 0l0 -10.453125q-0.59375 0.5625 -1.5625 1.140625q-0.953125 0.5625 -1.71875 0.84375l0 -1.59375q1.375 -0.640625 2.40625 -1.5625q1.03125 -0.921875 1.453125 -1.78125l1.0625 0l0 13.40625zm12.703844 -10.078125l-1.625 0.125q-0.21875 -0.96875 -0.625 -1.40625q-0.65625 -0.703125 -1.640625 -0.703125q-0.78125 0 -1.375 0.4375q-0.765625 0.5625 -1.21875 1.65625q-0.453125 1.078125 -0.46875 3.078125q0.59375 -0.890625 1.453125 -1.328125q0.859375 -0.4375 1.796875 -0.4375q1.640625 0 2.78125 1.203125q1.15625 1.203125 1.15625 3.109375q0 1.265625 -0.546875 2.34375q-0.53125 1.078125 -1.484375 1.65625q-0.9375 0.578125 -2.140625 0.578125q-2.0625 0 -3.359375 -1.5q-1.28125 -1.515625 -1.28125 -4.984375q0 -3.875 1.421875 -5.625q1.25 -1.53125 3.375 -1.53125q1.5625 0 2.5625 0.890625q1.015625 0.875 1.21875 2.4375zm-6.6875 5.75q0 0.84375 0.359375 1.625q0.359375 0.765625 1.0 1.171875q0.640625 0.40625 1.359375 0.40625q1.03125 0 1.78125 -0.828125q0.75 -0.84375 0.75 -2.28125q0 -1.390625 -0.734375 -2.1875q-0.734375 -0.796875 -1.859375 -0.796875q-1.109375 0 -1.890625 0.796875q-0.765625 0.796875 -0.765625 2.09375zm15.699646 4.328125l-1.515625 0l0 -13.359375l1.640625 0l0 4.765625q1.046875 -1.296875 2.65625 -1.296875q0.890625 0 1.6875 0.359375q0.796875 0.359375 1.3125 1.015625q0.515625 0.640625 0.796875 1.5625q0.296875 0.921875 0.296875 1.96875q0 2.484375 -1.234375 3.84375q-1.21875 1.359375 -2.953125 1.359375q-1.703125 0 -2.6875 -1.4375l0 1.21875zm-0.015625 -4.90625q0 1.734375 0.484375 2.515625q0.765625 1.265625 2.09375 1.265625q1.078125 0 1.859375 -0.9375q0.78125 -0.9375 0.78125 -2.78125q0 -1.890625 -0.75 -2.796875q-0.75 -0.90625 -1.828125 -0.90625q-1.0625 0 -1.859375 0.9375q-0.78125 0.9375 -0.78125 2.703125zm8.813217 8.625l-0.1875 -1.53125q0.546875 0.140625 0.9375 0.140625q0.546875 0 0.875 -0.1875q0.328125 -0.171875 0.546875 -0.5q0.15625 -0.25 0.5 -1.21875q0.046875 -0.140625 0.140625 -0.40625l-3.671875 -9.6875l1.765625 0l2.015625 5.59375q0.390625 1.078125 0.703125 2.25q0.28125 -1.125 0.671875 -2.203125l2.078125 -5.640625l1.640625 0l-3.6875 9.828125q-0.59375 1.609375 -0.921875 2.203125q-0.4375 0.8125 -1.0 1.1875q-0.5625 0.375 -1.34375 0.375q-0.484375 0 -1.0625 -0.203125zm12.984375 -5.1875l0.234375 1.453125q-0.6875 0.140625 -1.234375 0.140625q-0.890625 0 -1.390625 -0.28125q-0.484375 -0.28125 -0.6875 -0.734375q-0.203125 -0.46875 -0.203125 -1.9375l0 -5.578125l-1.203125 0l0 -1.265625l1.203125 0l0 -2.390625l1.625 -0.984375l0 3.375l1.65625 0l0 1.265625l-1.65625 0l0 5.671875q0 0.6875 0.078125 0.890625q0.09375 0.203125 0.28125 0.328125q0.203125 0.109375 0.578125 0.109375q0.265625 0 0.71875 -0.0625zm8.230179 -1.640625l1.6875 0.203125q-0.40625 1.484375 -1.484375 2.3125q-1.078125 0.8125 -2.765625 0.8125q-2.125 0 -3.375 -1.296875q-1.234375 -1.3125 -1.234375 -3.671875q0 -2.453125 1.25 -3.796875q1.265625 -1.34375 3.265625 -1.34375q1.9375 0 3.15625 1.328125q1.234375 1.3125 1.234375 3.703125q0 0.15625 0 0.4375l-7.21875 0q0.09375 1.59375 0.90625 2.453125q0.8125 0.84375 2.015625 0.84375q0.90625 0 1.546875 -0.46875q0.640625 -0.484375 1.015625 -1.515625zm-5.390625 -2.65625l5.40625 0q-0.109375 -1.21875 -0.625 -1.828125q-0.78125 -0.953125 -2.03125 -0.953125q-1.125 0 -1.90625 0.765625q-0.765625 0.75 -0.84375 2.015625zm8.485092 2.875l1.625 -0.25q0.125 0.96875 0.75 1.5q0.625 0.515625 1.75 0.515625q1.125 0 1.671875 -0.453125q0.546875 -0.46875 0.546875 -1.09375q0 -0.546875 -0.484375 -0.875q-0.328125 -0.21875 -1.671875 -0.546875q-1.8125 -0.46875 -2.515625 -0.796875q-0.6875 -0.328125 -1.046875 -0.90625q-0.359375 -0.59375 -0.359375 -1.3125q0 -0.640625 0.296875 -1.1875q0.296875 -0.5625 0.8125 -0.921875q0.375 -0.28125 1.03125 -0.46875q0.671875 -0.203125 1.421875 -0.203125q1.140625 0 2.0 0.328125q0.859375 0.328125 1.265625 0.890625q0.421875 0.5625 0.578125 1.5l-1.609375 0.21875q-0.109375 -0.75 -0.640625 -1.171875q-0.515625 -0.421875 -1.46875 -0.421875q-1.140625 0 -1.625 0.375q-0.46875 0.375 -0.46875 0.875q0 0.3125 0.1875 0.578125q0.203125 0.265625 0.640625 0.4375q0.234375 0.09375 1.4375 0.421875q1.75 0.453125 2.4375 0.75q0.6875 0.296875 1.078125 0.859375q0.390625 0.5625 0.390625 1.40625q0 0.828125 -0.484375 1.546875q-0.46875 0.71875 -1.375 1.125q-0.90625 0.390625 -2.046875 0.390625q-1.875 0 -2.875 -0.78125q-0.984375 -0.78125 -1.25 -2.328125zm11.0625 6.8125l-1.1875 0q2.734375 -4.375 2.734375 -8.75q0 -1.71875 -0.390625 -3.390625q-0.3125 -1.375 -0.875 -2.625q-0.359375 -0.828125 -1.46875 -2.734375l1.1875 0q1.703125 2.28125 2.53125 4.59375q0.6875 1.984375 0.6875 4.140625q0 2.46875 -0.9375 4.765625q-0.9375 2.296875 -2.28125 4.0z" fill-rule="nonzero"/><path fill="#000000" fill-opacity="0.0" d="m6.0009823 155.69809l106.58267 0l0 64.62991l-106.58267 0z" fill-rule="evenodd"/><path fill="#000000" d="m54.42991 182.61809l0 -13.359375l5.015625 0q1.53125 0 2.453125 0.40625q0.921875 0.40625 1.4375 1.25q0.53125 0.84375 0.53125 1.765625q0 0.859375 -0.46875 1.625q-0.453125 0.75 -1.390625 1.203125q1.203125 0.359375 1.859375 1.21875q0.65625 0.859375 0.65625 2.015625q0 0.9375 -0.40625 1.75q-0.390625 0.796875 -0.984375 1.234375q-0.578125 0.4375 -1.453125 0.671875q-0.875 0.21875 -2.15625 0.21875l-5.09375 0zm1.78125 -7.75l2.875 0q1.1875 0 1.6875 -0.140625q0.671875 -0.203125 1.015625 -0.671875q0.34375 -0.46875 0.34375 -1.171875q0 -0.65625 -0.328125 -1.15625q-0.3125 -0.515625 -0.90625 -0.703125q-0.59375 -0.1875 -2.03125 -0.1875l-2.65625 0l0 4.03125zm0 6.171875l3.3125 0q0.859375 0 1.203125 -0.0625q0.609375 -0.109375 1.015625 -0.359375q0.421875 -0.265625 0.6875 -0.75q0.265625 -0.484375 0.265625 -1.125q0 -0.75 -0.390625 -1.296875q-0.375 -0.546875 -1.0625 -0.765625q-0.671875 -0.234375 -1.953125 -0.234375l-3.078125 0l0 4.59375z" fill-rule="nonzero"/><path fill="#000000" d="m22.176157 208.93996q-1.359375 -1.703125 -2.296875 -4.0q-0.9375 -2.296875 -0.9375 -4.765625q0 -2.15625 0.703125 -4.140625q0.828125 -2.3125 2.53125 -4.59375l1.171875 0q-1.09375 1.890625 -1.453125 2.703125q-0.546875 1.25 -0.875 2.625q-0.390625 1.703125 -0.390625 3.421875q0 4.375 2.71875 8.75l-1.171875 0zm8.806427 -3.921875l-1.640625 0l0 -10.453125q-0.59375 0.5625 -1.5625 1.140625q-0.953125 0.5625 -1.71875 0.84375l0 -1.59375q1.375 -0.640625 2.40625 -1.5625q1.03125 -0.921875 1.453125 -1.78125l1.0625 0l0 13.40625zm12.70384 -10.078125l-1.625 0.125q-0.21875 -0.96875 -0.625 -1.40625q-0.65625 -0.703125 -1.640625 -0.703125q-0.78125 0 -1.375 0.4375q-0.765625 0.5625 -1.21875 1.65625q-0.453125 1.078125 -0.46875 3.078125q0.59375 -0.890625 1.453125 -1.328125q0.859375 -0.4375 1.796875 -0.4375q1.640625 0 2.78125 1.203125q1.15625 1.203125 1.15625 3.109375q0 1.265625 -0.546875 2.34375q-0.53125 1.078125 -1.484375 1.65625q-0.9375 0.578125 -2.140625 0.578125q-2.0625 0 -3.359375 -1.5q-1.28125 -1.515625 -1.28125 -4.984375q0 -3.875 1.421875 -5.625q1.25 -1.53125 3.375 -1.53125q1.5625 0 2.5625 0.890625q1.015625 0.875 1.21875 2.4375zm-6.6875 5.75q0 0.84375 0.359375 1.625q0.359375 0.765625 1.0 1.171875q0.640625 0.40625 1.359375 0.40625q1.03125 0 1.78125 -0.828125q0.75 -0.84375 0.75 -2.28125q0 -1.390625 -0.734375 -2.1875q-0.734375 -0.796875 -1.859375 -0.796875q-1.109375 0 -1.890625 0.796875q-0.765625 0.796875 -0.765625 2.09375zm15.699646 4.328125l-1.515625 0l0 -13.359375l1.640625 0l0 4.765625q1.046875 -1.296875 2.65625 -1.296875q0.890625 0 1.6875 0.359375q0.796875 0.359375 1.3125 1.015625q0.515625 0.640625 0.796875 1.5625q0.296875 0.921875 0.296875 1.96875q0 2.484375 -1.234375 3.84375q-1.21875 1.359375 -2.953125 1.359375q-1.703125 0 -2.6875 -1.4375l0 1.21875zm-0.015625 -4.90625q0 1.734375 0.484375 2.515625q0.765625 1.265625 2.09375 1.265625q1.078125 0 1.859375 -0.9375q0.78125 -0.9375 0.78125 -2.78125q0 -1.890625 -0.75 -2.796875q-0.75 -0.90625 -1.828125 -0.90625q-1.0625 0 -1.859375 0.9375q-0.78125 0.9375 -0.78125 2.703125zm8.813217 8.625l-0.1875 -1.53125q0.546875 0.140625 0.9375 0.140625q0.546875 0 0.875 -0.1875q0.328125 -0.171875 0.546875 -0.5q0.15625 -0.25 0.5 -1.21875q0.046875 -0.140625 0.140625 -0.40625l-3.671875 -9.6875l1.765625 0l2.015625 5.59375q0.390625 1.078125 0.703125 2.25q0.28125 -1.125 0.671875 -2.203125l2.078125 -5.640625l1.640625 0l-3.6875 9.828125q-0.59375 1.609375 -0.921875 2.203125q-0.4375 0.8125 -1.0 1.1875q-0.5625 0.375 -1.34375 0.375q-0.484375 0 -1.0625 -0.203125zm12.984375 -5.1875l0.234375 1.453125q-0.6875 0.140625 -1.234375 0.140625q-0.890625 0 -1.390625 -0.28125q-0.484375 -0.28125 -0.6875 -0.734375q-0.203125 -0.46875 -0.203125 -1.9375l0 -5.578125l-1.203125 0l0 -1.265625l1.203125 0l0 -2.390625l1.625 -0.984375l0 3.375l1.65625 0l0 1.265625l-1.65625 0l0 5.671875q0 0.6875 0.078125 0.890625q0.09375 0.203125 0.28125 0.328125q0.203125 0.109375 0.578125 0.109375q0.265625 0 0.71875 -0.0625zm8.230179 -1.640625l1.6875 0.203125q-0.40625 1.484375 -1.484375 2.3125q-1.078125 0.8125 -2.765625 0.8125q-2.125 0 -3.375 -1.296875q-1.234375 -1.3125 -1.234375 -3.671875q0 -2.453125 1.25 -3.796875q1.265625 -1.34375 3.265625 -1.34375q1.9375 0 3.15625 1.328125q1.234375 1.3125 1.234375 3.703125q0 0.15625 0 0.4375l-7.21875 0q0.09375 1.59375 0.90625 2.453125q0.8125 0.84375 2.015625 0.84375q0.90625 0 1.546875 -0.46875q0.640625 -0.484375 1.015625 -1.515625zm-5.390625 -2.65625l5.40625 0q-0.109375 -1.21875 -0.625 -1.828125q-0.78125 -0.953125 -2.03125 -0.953125q-1.125 0 -1.90625 0.765625q-0.765625 0.75 -0.84375 2.015625zm8.485092 2.875l1.625 -0.25q0.125 0.96875 0.75 1.5q0.625 0.515625 1.75 0.515625q1.125 0 1.671875 -0.453125q0.546875 -0.46875 0.546875 -1.09375q0 -0.546875 -0.484375 -0.875q-0.328125 -0.21875 -1.671875 -0.546875q-1.8125 -0.46875 -2.515625 -0.796875q-0.6875 -0.328125 -1.046875 -0.90625q-0.359375 -0.59375 -0.359375 -1.3125q0 -0.640625 0.296875 -1.1875q0.296875 -0.5625 0.8125 -0.921875q0.375 -0.28125 1.03125 -0.46875q0.671875 -0.203125 1.421875 -0.203125q1.140625 0 2.0 0.328125q0.859375 0.328125 1.265625 0.890625q0.421875 0.5625 0.578125 1.5l-1.609375 0.21875q-0.109375 -0.75 -0.640625 -1.171875q-0.515625 -0.421875 -1.46875 -0.421875q-1.140625 0 -1.625 0.375q-0.46875 0.375 -0.46875 0.875q0 0.3125 0.1875 0.578125q0.203125 0.265625 0.640625 0.4375q0.234375 0.09375 1.4375 0.421875q1.75 0.453125 2.4375 0.75q0.6875 0.296875 1.078125 0.859375q0.390625 0.5625 0.390625 1.40625q0 0.828125 -0.484375 1.546875q-0.46875 0.71875 -1.375 1.125q-0.90625 0.390625 -2.046875 0.390625q-1.875 0 -2.875 -0.78125q-0.984375 -0.78125 -1.25 -2.328125zm11.0625 6.8125l-1.1875 0q2.734375 -4.375 2.734375 -8.75q0 -1.71875 -0.390625 -3.390625q-0.3125 -1.375 -0.875 -2.625q-0.359375 -0.828125 -1.46875 -2.734375l1.1875 0q1.703125 2.28125 2.53125 4.59375q0.6875 1.984375 0.6875 4.140625q0 2.46875 -0.9375 4.765625q-0.9375 2.296875 -2.28125 4.0z" fill-rule="nonzero"/><path fill="#000000" fill-opacity="0.0" d="m13.449801 250.42775l91.68504 0l0 64.62993l-91.68504 0z" fill-rule="evenodd"/><path fill="#000000" d="m34.320755 277.34775l0 -13.359375l5.921875 0q1.78125 0 2.703125 0.359375q0.9375 0.359375 1.484375 1.28125q0.5625 0.90625 0.5625 2.015625q0 1.40625 -0.921875 2.390625q-0.921875 0.96875 -2.84375 1.234375q0.703125 0.34375 1.078125 0.671875q0.765625 0.703125 1.453125 1.765625l2.328125 3.640625l-2.21875 0l-1.765625 -2.78125q-0.78125 -1.203125 -1.28125 -1.828125q-0.5 -0.640625 -0.90625 -0.890625q-0.390625 -0.265625 -0.796875 -0.359375q-0.296875 -0.078125 -0.984375 -0.078125l-2.046875 0l0 5.9375l-1.765625 0zm1.765625 -7.453125l3.796875 0q1.21875 0 1.890625 -0.25q0.6875 -0.265625 1.046875 -0.8125q0.359375 -0.546875 0.359375 -1.1875q0 -0.953125 -0.6875 -1.5625q-0.6875 -0.609375 -2.1875 -0.609375l-4.21875 0l0 4.421875zm18.097946 4.34375l1.6875 0.203125q-0.40625 1.484375 -1.484375 2.3125q-1.078125 0.8125 -2.765625 0.8125q-2.125 0 -3.375 -1.296875q-1.234375 -1.3125 -1.234375 -3.671875q0 -2.453125 1.25 -3.796875q1.265625 -1.34375 3.265625 -1.34375q1.9375 0 3.15625 1.328125q1.234375 1.3125 1.234375 3.703125q0 0.15625 0 0.4375l-7.21875 0q0.09375 1.59375 0.90625 2.453125q0.8125 0.84375 2.015625 0.84375q0.90625 0 1.546875 -0.46875q0.640625 -0.484375 1.015625 -1.515625zm-5.390625 -2.65625l5.40625 0q-0.109375 -1.21875 -0.625 -1.828125q-0.78125 -0.953125 -2.03125 -0.953125q-1.125 0 -1.90625 0.765625q-0.765625 0.75 -0.84375 2.015625zm8.485092 2.875l1.625 -0.25q0.125 0.96875 0.75 1.5q0.625 0.515625 1.75 0.515625q1.125 0 1.671875 -0.453125q0.546875 -0.46875 0.546875 -1.09375q0 -0.546875 -0.484375 -0.875q-0.328125 -0.21875 -1.671875 -0.546875q-1.8125 -0.46875 -2.515625 -0.796875q-0.6875 -0.328125 -1.046875 -0.90625q-0.359375 -0.59375 -0.359375 -1.3125q0 -0.640625 0.296875 -1.1875q0.296875 -0.5625 0.8125 -0.921875q0.375 -0.28125 1.03125 -0.46875q0.671875 -0.203125 1.421875 -0.203125q1.140625 0 2.0 0.328125q0.859375 0.328125 1.265625 0.890625q0.421875 0.5625 0.578125 1.5l-1.609375 0.21875q-0.109375 -0.75 -0.640625 -1.171875q-0.515625 -0.421875 -1.46875 -0.421875q-1.140625 0 -1.625 0.375q-0.46875 0.375 -0.46875 0.875q0 0.3125 0.1875 0.578125q0.203125 0.265625 0.640625 0.4375q0.234375 0.09375 1.4375 0.421875q1.75 0.453125 2.4375 0.75q0.6875 0.296875 1.078125 0.859375q0.390625 0.5625 0.390625 1.40625q0 0.828125 -0.484375 1.546875q-0.46875 0.71875 -1.375 1.125q-0.90625 0.390625 -2.046875 0.390625q-1.875 0 -2.875 -0.78125q-0.984375 -0.78125 -1.25 -2.328125zm16.3125 2.890625l0 -1.421875q-1.125 1.640625 -3.0625 1.640625q-0.859375 0 -1.609375 -0.328125q-0.734375 -0.328125 -1.09375 -0.828125q-0.359375 -0.5 -0.5 -1.21875q-0.109375 -0.46875 -0.109375 -1.53125l0 -5.984375l1.640625 0l0 5.359375q0 1.28125 0.109375 1.734375q0.15625 0.640625 0.65625 1.015625q0.5 0.375 1.234375 0.375q0.734375 0 1.375 -0.375q0.65625 -0.390625 0.921875 -1.03125q0.265625 -0.65625 0.265625 -1.890625l0 -5.1875l1.640625 0l0 9.671875l-1.46875 0zm4.000717 0l0 -13.359375l1.640625 0l0 13.359375l-1.640625 0zm7.769821 -1.46875l0.234375 1.453125q-0.6875 0.140625 -1.234375 0.140625q-0.890625 0 -1.390625 -0.28125q-0.484375 -0.28125 -0.6875 -0.734375q-0.203125 -0.46875 -0.203125 -1.9375l0 -5.578125l-1.203125 0l0 -1.265625l1.203125 0l0 -2.390625l1.625 -0.984375l0 3.375l1.65625 0l0 1.265625l-1.65625 0l0 5.671875q0 0.6875 0.078125 0.890625q0.09375 0.203125 0.28125 0.328125q0.203125 0.109375 0.578125 0.109375q0.265625 0 0.71875 -0.0625z" fill-rule="nonzero"/><path fill="#000000" d="m29.955664 303.66962q-1.359375 -1.703125 -2.296875 -4.0q-0.9375 -2.296875 -0.9375 -4.765625q0 -2.15625 0.703125 -4.140625q0.828125 -2.3125 2.53125 -4.59375l1.171875 0q-1.09375 1.890625 -1.453125 2.703125q-0.546875 1.25 -0.875 2.625q-0.390625 1.703125 -0.390625 3.421875q0 4.375 2.71875 8.75l-1.171875 0zm8.806429 -3.921875l-1.640625 0l0 -10.453125q-0.59375 0.5625 -1.5625 1.140625q-0.953125 0.5625 -1.71875 0.84375l0 -1.59375q1.375 -0.640625 2.40625 -1.5625q1.03125 -0.921875 1.453125 -1.78125l1.0625 0l0 13.40625zm12.703842 -10.078125l-1.625 0.125q-0.21875 -0.96875 -0.625 -1.40625q-0.65625 -0.703125 -1.640625 -0.703125q-0.78125 0 -1.375 0.4375q-0.765625 0.5625 -1.21875 1.65625q-0.453125 1.078125 -0.46875 3.078125q0.59375 -0.890625 1.453125 -1.328125q0.859375 -0.4375 1.796875 -0.4375q1.640625 0 2.78125 1.203125q1.15625 1.203125 1.15625 3.109375q0 1.265625 -0.546875 2.34375q-0.53125 1.078125 -1.484375 1.65625q-0.9375 0.578125 -2.140625 0.578125q-2.0625 0 -3.359375 -1.5q-1.28125 -1.515625 -1.28125 -4.984375q0 -3.875 1.421875 -5.625q1.25 -1.53125 3.375 -1.53125q1.5625 0 2.5625 0.890625q1.015625 0.875 1.21875 2.4375zm-6.6875 5.75q0 0.84375 0.359375 1.625q0.359375 0.765625 1.0 1.171875q0.640625 0.40625 1.359375 0.40625q1.03125 0 1.78125 -0.828125q0.75 -0.84375 0.75 -2.28125q0 -1.390625 -0.734375 -2.1875q-0.734375 -0.796875 -1.859375 -0.796875q-1.109375 0 -1.890625 0.796875q-0.765625 0.796875 -0.765625 2.09375zm15.699646 4.328125l-1.515625 0l0 -13.359375l1.640625 0l0 4.765625q1.046875 -1.296875 2.65625 -1.296875q0.890625 0 1.6875 0.359375q0.796875 0.359375 1.3125 1.015625q0.515625 0.640625 0.796875 1.5625q0.296875 0.921875 0.296875 1.96875q0 2.484375 -1.234375 3.84375q-1.21875 1.359375 -2.953125 1.359375q-1.703125 0 -2.6875 -1.4375l0 1.21875zm-0.015625 -4.90625q0 1.734375 0.484375 2.515625q0.765625 1.265625 2.09375 1.265625q1.078125 0 1.859375 -0.9375q0.78125 -0.9375 0.78125 -2.78125q0 -1.890625 -0.75 -2.796875q-0.75 -0.90625 -1.828125 -0.90625q-1.0625 0 -1.859375 0.9375q-0.78125 0.9375 -0.78125 2.703125zm8.891342 -6.5625l0 -1.890625l1.640625 0l0 1.890625l-1.640625 0zm0 11.46875l0 -9.671875l1.640625 0l0 9.671875l-1.640625 0zm7.722946 -1.46875l0.234375 1.453125q-0.6875 0.140625 -1.234375 0.140625q-0.890625 0 -1.390625 -0.28125q-0.484375 -0.28125 -0.6875 -0.734375q-0.203125 -0.46875 -0.203125 -1.9375l0 -5.578125l-1.203125 0l0 -1.265625l1.203125 0l0 -2.390625l1.625 -0.984375l0 3.375l1.65625 0l0 1.265625l-1.65625 0l0 5.671875q0 0.6875 0.078125 0.890625q0.09375 0.203125 0.28125 0.328125q0.203125 0.109375 0.578125 0.109375q0.265625 0 0.71875 -0.0625zm0.9489212 -1.421875l1.625 -0.25q0.125 0.96875 0.75 1.5q0.625 0.515625 1.75 0.515625q1.125 0 1.671875 -0.453125q0.546875 -0.46875 0.546875 -1.09375q0 -0.546875 -0.484375 -0.875q-0.328125 -0.21875 -1.671875 -0.546875q-1.8125 -0.46875 -2.515625 -0.796875q-0.6875 -0.328125 -1.046875 -0.90625q-0.359375 -0.59375 -0.359375 -1.3125q0 -0.640625 0.296875 -1.1875q0.296875 -0.5625 0.8125 -0.921875q0.375 -0.28125 1.03125 -0.46875q0.671875 -0.203125 1.421875 -0.203125q1.140625 0 2.0 0.328125q0.859375 0.328125 1.265625 0.890625q0.421875 0.5625 0.578125 1.5l-1.609375 0.21875q-0.109375 -0.75 -0.640625 -1.171875q-0.515625 -0.421875 -1.46875 -0.421875q-1.140625 0 -1.625 0.375q-0.46875 0.375 -0.46875 0.875q0 0.3125 0.1875 0.578125q0.203125 0.265625 0.640625 0.4375q0.234375 0.09375 1.4375 0.421875q1.75 0.453125 2.4375 0.75q0.6875 0.296875 1.078125 0.859375q0.390625 0.5625 0.390625 1.40625q0 0.828125 -0.484375 1.546875q-0.46875 0.71875 -1.375 1.125q-0.90625 0.390625 -2.046875 0.390625q-1.875 0 -2.875 -0.78125q-0.984375 -0.78125 -1.25 -2.328125zm11.0625 6.8125l-1.1875 0q2.734375 -4.375 2.734375 -8.75q0 -1.71875 -0.390625 -3.390625q-0.3125 -1.375 -0.875 -2.625q-0.359375 -0.828125 -1.46875 -2.734375l1.1875 0q1.703125 2.28125 2.53125 4.59375q0.6875 1.984375 0.6875 4.140625q0 2.46875 -0.9375 4.765625q-0.9375 2.296875 -2.28125 4.0z" fill-rule="nonzero"/></g></svg>